<svg width="51" height="32" viewBox="0 0 51 32" fill="none" xmlns="http://www.w3.org/2000/svg">
<path d="M37.4429 1.57609C34.8907 3.79267 26.8638 11.0046 26.8638 11.101C26.8638 11.1492 27.5457 11.1813 28.4029 11.1813H29.9421L31.2669 9.92842C32.0072 9.25381 33.6633 7.74397 34.9491 6.60355C39.099 2.90926 40.5017 1.59216 40.5017 1.43153C40.5017 1.12635 39.586 0.580239 39.099 0.580239C38.7288 0.580239 38.2807 0.853296 37.4429 1.57609Z" fill="#860000"/>
<path d="M37.8716 5.99319C35.7285 7.92065 33.5464 9.88024 33.0204 10.33L32.0657 11.1813H38.8067H45.5283L47.1064 9.71962C47.9831 8.90045 48.6845 8.09734 48.6845 7.92065C48.6845 7.72791 48.139 7.14967 47.3792 6.52324C45.236 4.80459 42.2552 2.58801 41.9824 2.53982C41.846 2.52376 39.9952 4.06573 37.8716 5.99319Z" fill="#860000"/>
<path d="M22.11 9.51084C21.7204 9.81602 21.7009 10.2818 22.0516 10.5228C22.2854 10.6673 24.4479 10.7798 25.7143 10.7155C25.8897 10.6994 26.3572 10.3782 26.7469 9.97664L27.4678 9.25384H24.935C22.9088 9.25384 22.3438 9.30203 22.11 9.51084Z" fill="#860000"/>
<path d="M48.1195 9.96062L47.2817 10.6674L48.2754 10.7798C48.8988 10.844 49.5028 11.0368 49.834 11.2777C50.1457 11.4865 50.4574 11.6632 50.5354 11.6632C50.6133 11.6632 50.6328 11.2938 50.5938 10.828C50.5159 10.1855 50.3795 9.91243 49.9704 9.62331C49.6781 9.4145 49.3274 9.25388 49.2105 9.25388C49.0742 9.25388 48.5871 9.57513 48.1195 9.96062Z" fill="#860000"/>
<path d="M20.2007 11.0528L20.1423 11.9041L16.9276 11.9844C13.07 12.0808 12.6414 12.2093 12.6414 13.3658C12.6414 14.5062 13.3623 14.715 17.3562 14.715C19.2071 14.715 20.6098 14.7793 20.8631 14.8917C21.0774 14.9881 21.3697 15.3093 21.5255 15.6145C21.7593 16.0803 21.7593 16.2409 21.5255 16.7067C21.3697 16.9958 21.1359 17.301 20.9995 17.3813C20.8436 17.4616 18.0186 17.558 14.726 17.6062L8.70588 17.6865L8.3357 18.072C8.12139 18.2969 7.96553 18.6984 7.96553 19.0679C7.96553 19.5658 8.06294 19.7425 8.49156 19.9673C8.95915 20.2243 9.73846 20.2725 15.7197 20.3368L22.4217 20.4171L22.9088 20.8829C23.5323 21.4772 23.4154 22.3285 22.675 22.8585C22.1879 23.2119 22.0516 23.228 17.7848 23.228H13.4012L12.9336 23.6295C12.6024 23.8865 12.4466 24.1917 12.4466 24.5611C12.4466 25.7176 13.2064 25.9425 17.0835 25.9585C19.5773 25.9585 19.6942 25.9746 20.1423 26.3601C20.8242 26.9062 20.8047 27.8539 20.1228 28.3839C19.6357 28.7694 19.5578 28.7694 15.5638 28.8176C11.5504 28.8658 11.5114 28.8658 11.0633 29.2673C10.4593 29.7974 10.4593 30.7129 11.0633 31.1145C11.4919 31.4036 12.2323 31.4197 29.9226 31.4197C48.2169 31.4197 48.3533 31.4197 48.9962 31.0824C50.3795 30.3917 50.5354 30.0223 50.6133 27.1953C50.6523 25.1554 50.6133 24.6736 50.4185 24.6575C50.2626 24.6414 48.4507 24.6254 46.405 24.6093L42.6643 24.5933L42.1188 24.1435C41.5928 23.7098 41.5733 23.6616 41.5733 21.7984C41.5733 18.7466 41.7486 18.6502 46.931 18.7627C48.704 18.8109 50.2626 18.8109 50.399 18.7787C50.5743 18.7306 50.6328 18.1363 50.6328 16.5943C50.6133 13.7995 50.2626 12.9964 48.7819 12.3217C48.2559 12.0969 46.7947 12.0487 35.2024 11.9844C22.4023 11.9041 22.2074 11.9041 21.6619 11.5668C21.3697 11.3901 20.9216 11.0047 20.6878 10.7155L20.2592 10.2015L20.2007 11.0528ZM35.7285 16.1767C38.6704 17.0762 40.6966 20.1119 40.1121 22.714C39.7029 24.5451 38.2028 26.2477 36.2935 27.0508C32.6112 28.5767 28.0523 27.2917 26.3183 24.2399C25.8507 23.4207 25.7923 23.1155 25.7923 21.7021C25.7923 20.3047 25.8702 19.9834 26.2988 19.1964C27.234 17.5741 29.2992 16.2088 31.4228 15.8394C32.5528 15.6466 34.4816 15.7912 35.7285 16.1767Z" fill="#860000"/>
<path d="M31.3253 16.5301C29.3771 16.9798 27.799 18.0881 26.9807 19.5176C26.3962 20.5617 26.4157 22.8264 27.0002 23.9026C28.3834 26.3922 32.0267 27.6933 35.0465 26.7617C37.2676 26.071 38.8262 24.5451 39.3328 22.5373C39.7419 20.8508 38.9431 19.0036 37.1896 17.7187C35.6505 16.5783 33.2346 16.0803 31.3253 16.5301ZM33.4879 17.5259C33.5659 17.9114 33.7802 18.072 34.501 18.3612C35.631 18.7948 36.1765 19.5337 35.8453 20.128C35.5336 20.6741 34.6959 20.5777 34.2672 19.9513C33.7607 19.1803 33.4879 19.2446 33.5269 20.0959C33.5659 20.8508 33.5853 20.8669 34.579 21.2202C35.7674 21.6539 36.274 22.2 36.274 23.0353C36.274 24.015 35.7479 24.6575 34.579 25.0752C33.7217 25.3964 33.5269 25.541 33.4295 25.9586C33.3126 26.3762 33.2152 26.4565 32.8645 26.4083C32.5528 26.3762 32.3579 26.1995 32.241 25.8622C32.1046 25.4928 31.8319 25.284 31.1695 25.027C29.8446 24.529 29.1238 23.2601 29.8836 22.7461C30.3122 22.457 30.8383 22.6819 31.3253 23.3886C31.5591 23.742 31.8319 24.0311 31.9488 24.0311C32.0462 24.0311 32.1241 23.6135 32.1241 23.0995V22.1518L31.3253 21.8627C30.2343 21.4451 29.7862 20.9311 29.7862 20.0798C29.7862 19.2446 30.4486 18.5218 31.4422 18.2487C31.8124 18.1524 32.1241 17.9596 32.1241 17.8311C32.1241 16.9156 33.3126 16.6586 33.4879 17.5259Z" fill="#860000"/>
<path d="M31.5591 19.6622C31.4422 19.8389 31.4422 20.0477 31.5591 20.2244C31.8709 20.6741 32.1241 20.5456 32.1241 19.9352C32.1241 19.3249 31.8709 19.1964 31.5591 19.6622Z" fill="#860000"/>
<path d="M33.6048 22.5373C33.5464 22.6016 33.4879 22.955 33.4879 23.3405C33.4879 23.8384 33.5659 24.0311 33.7802 24.0311C34.1698 24.0311 34.5205 23.4368 34.3841 22.9871C34.2672 22.6177 33.8191 22.3607 33.6048 22.5373Z" fill="#860000"/>
<path d="M6.11467 12.1772C5.17949 12.6269 4.9457 13.5907 5.6276 14.201C6.42639 14.8917 8.53053 14.8757 9.29036 14.1529C9.87484 13.5746 9.83587 13.0124 9.15398 12.4503C8.66691 12.0487 8.43311 11.9845 7.53691 11.9845C6.97191 11.9845 6.32898 12.0808 6.11467 12.1772Z" fill="#860000"/>
<path d="M1.06862 17.9596C0.328279 18.5057 0.211382 19.2125 0.815348 19.7746C1.24397 20.1922 1.38035 20.2244 2.60776 20.2083C3.67931 20.2083 3.99104 20.128 4.38069 19.8389C4.84828 19.4855 4.98466 18.8751 4.73138 18.329C4.38069 17.5741 1.94535 17.3332 1.06862 17.9596Z" fill="#860000"/>
<path d="M42.6448 19.6943C42.2942 19.9834 42.2552 20.2243 42.2552 21.7824C42.2552 24.1435 42.0409 24.0471 46.8531 23.9989L50.5354 23.9507V21.702V19.4533L46.7947 19.4052C43.2488 19.373 43.015 19.3891 42.6448 19.6943ZM46.6973 20.915C47.6714 21.4772 46.7752 23.0673 45.6062 22.8264C45.314 22.7621 44.9243 22.6015 44.749 22.473C44.3009 22.1518 44.3009 21.3326 44.7295 20.9471C45.1192 20.5938 46.1128 20.5616 46.6973 20.915Z" fill="#860000"/>
<path d="M5.62759 23.3405C4.61449 23.6456 4.28328 24.8503 5.02363 25.4607C5.53018 25.8783 6.9719 26.0389 7.86811 25.798C9.25138 25.4125 9.48518 23.8866 8.23828 23.4047C7.73173 23.228 6.15363 23.1798 5.62759 23.3405Z" fill="#860000"/>
<path d="M3.1338 29.1388C2.49087 29.5565 2.37397 30.4238 2.90001 30.986C3.28966 31.3876 3.42604 31.4197 4.67294 31.4197C5.86138 31.4197 6.09518 31.3715 6.50432 31.0181C6.81604 30.7772 6.99138 30.4399 6.99138 30.1347C6.99138 29.8295 6.81604 29.4922 6.50432 29.2513C6.11466 28.914 5.86138 28.8497 4.80932 28.8497C3.95207 28.8497 3.44552 28.9461 3.1338 29.1388Z" fill="#860000"/>
</svg>
