<?xml version="1.0" standalone="no"?>
<!DOCTYPE svg PUBLIC "-//W3C//DTD SVG 20010904//EN"
 "http://www.w3.org/TR/2001/REC-SVG-20010904/DTD/svg10.dtd">
<svg version="1.0" xmlns="http://www.w3.org/2000/svg"
 width="1103.000000pt" height="466.000000pt" viewBox="0 0 1103.000000 466.000000"
 preserveAspectRatio="xMidYMid meet">

<g transform="translate(0.000000,466.000000) scale(0.100000,-0.100000)"
fill="#000000" stroke="none">
<path d="M1266 3358 c-40 -63 -7 -158 54 -158 17 0 30 4 30 8 0 13 -32 39 -62
51 l-28 10 25 25 c16 16 25 36 25 56 0 36 -23 40 -44 8z"/>
<path d="M1930 3345 c0 -22 8 -43 21 -56 11 -11 19 -22 17 -23 -1 -1 -18 -8
-36 -16 -18 -7 -37 -21 -43 -31 -9 -17 -6 -19 26 -19 29 0 39 5 53 30 9 16 19
30 22 30 3 0 21 -10 40 -21 33 -20 33 -22 15 -35 -41 -28 -56 -47 -43 -56 21
-13 35 -9 67 18 l32 26 34 -23 c42 -29 43 -35 7 -42 -16 -3 -39 -15 -53 -25
l-24 -20 28 -13 c26 -12 34 -10 74 11 l45 24 19 -23 c27 -33 24 -41 -15 -41
-19 0 -39 -7 -47 -16 -11 -14 -10 -18 6 -30 24 -18 43 -17 75 1 34 20 36 19
59 -19 28 -45 26 -53 -9 -48 -16 2 -42 1 -56 -2 -26 -7 -26 -7 -8 -28 16 -17
27 -19 72 -15 52 6 52 6 67 -30 20 -47 19 -56 -4 -43 -23 12 -91 14 -91 2 0
-5 11 -19 25 -32 19 -18 36 -24 64 -23 36 2 39 -1 45 -29 8 -42 8 -66 -2 -52
-19 30 -84 44 -98 22 -12 -19 43 -58 82 -58 l34 0 0 -52 0 -51 -24 22 c-21 20
-96 42 -96 28 0 -37 58 -87 100 -87 20 0 22 -4 16 -31 -3 -17 -6 -35 -6 -39 0
-5 -13 5 -29 21 -35 34 -81 40 -81 10 0 -21 63 -81 86 -81 15 0 13 -24 -8 -79
l-8 -23 -23 33 c-12 19 -34 39 -47 46 -24 12 -25 11 -28 -18 -4 -34 19 -66 57
-80 18 -7 22 -15 18 -32 -6 -20 -5 -20 7 -4 8 10 26 17 45 17 51 0 121 47 121
82 0 14 -70 9 -99 -7 l-29 -14 10 38 c9 35 13 39 50 44 47 6 83 38 94 81 7 28
6 28 -27 21 -19 -4 -46 -16 -61 -27 l-28 -19 0 30 c0 21 5 31 15 31 48 0 105
60 105 110 0 30 -34 18 -82 -28 l-38 -36 0 47 c0 41 3 49 24 57 33 12 66 58
66 90 0 23 -3 27 -20 23 -12 -3 -33 -21 -48 -41 l-27 -35 -7 37 c-7 34 -5 40
27 70 28 26 35 41 35 70 0 23 -5 36 -13 36 -18 0 -53 -39 -62 -69 -7 -22 -9
-21 -27 22 l-20 45 23 32 c23 30 31 101 14 118 -10 10 -55 -46 -55 -69 0 -28
-13 -24 -33 11 -16 27 -17 33 -3 74 15 44 8 107 -13 121 -15 8 -43 -64 -36
-92 6 -26 -2 -25 -38 5 -15 13 -17 25 -12 66 5 41 2 57 -15 85 -27 43 -45 29
-44 -35 1 -43 0 -44 -20 -31 -15 10 -22 28 -26 65 -5 48 -30 92 -53 92 -5 0
-8 -21 -5 -50 3 -27 3 -50 1 -50 -2 0 -17 7 -33 15 -23 12 -30 23 -30 44 0 28
-33 81 -51 81 -5 0 -9 -16 -9 -35z"/>
<path d="M1143 3314 c-10 -15 -18 -46 -17 -68 0 -29 -6 -46 -21 -58 -28 -24
-32 -22 -27 12 2 16 1 41 -2 56 -6 22 -9 24 -23 12 -29 -23 -43 -72 -33 -109
9 -30 7 -37 -20 -64 l-30 -30 0 41 c0 22 -7 49 -15 60 -15 19 -15 19 -30 0
-20 -26 -19 -81 1 -116 16 -26 16 -29 -6 -61 l-24 -32 -17 40 c-20 47 -37 62
-50 42 -16 -25 -10 -76 12 -103 19 -25 20 -31 9 -72 -15 -52 -27 -56 -42 -14
-18 54 -68 67 -68 19 0 -23 10 -42 38 -69 33 -34 37 -41 29 -69 -9 -37 -20
-39 -35 -6 -11 23 -56 44 -68 32 -15 -14 20 -80 52 -99 31 -18 34 -24 34 -66
l0 -47 -25 32 c-30 37 -83 60 -91 38 -12 -30 43 -101 87 -110 16 -4 29 -11 29
-17 0 -7 4 -7 13 0 6 5 27 13 44 17 53 11 99 85 53 85 -26 0 -80 -27 -80 -40
0 -6 -5 -10 -11 -10 -6 0 -9 19 -7 48 3 46 4 47 38 50 36 4 80 36 80 59 0 17
-38 16 -74 -2 -36 -19 -39 -16 -28 26 7 29 13 34 38 35 16 0 35 1 42 2 15 2
52 39 52 52 0 13 -56 13 -81 0 -23 -13 -25 -2 -7 46 11 32 12 32 62 27 36 -3
57 0 71 10 30 23 7 40 -49 36 -54 -5 -57 4 -18 50 28 34 28 34 55 16 27 -17
57 -16 87 5 13 9 12 12 -4 25 -11 8 -35 15 -53 15 -39 0 -41 9 -10 38 29 27
31 27 66 1 22 -16 36 -19 60 -14 17 4 31 10 31 14 0 14 -34 39 -62 46 -35 9
-35 19 1 44 36 26 39 26 59 2 21 -24 52 -33 71 -22 13 8 13 12 1 26 -8 10 -26
21 -39 27 l-26 9 25 20 c14 11 17 17 8 13 -14 -5 -16 2 -15 42 2 56 -14 67
-40 28z"/>
<path d="M1348 3308 c-16 -5 -28 -13 -28 -18 0 -23 82 -27 100 -5 10 12 8 16
-15 25 -14 5 -27 10 -28 9 -1 0 -14 -5 -29 -11z"/>
<path d="M1820 3309 c-24 -10 -24 -11 -6 -25 23 -17 82 -19 92 -3 15 25 -45
45 -86 28z"/>
<path d="M8313 3114 c-12 -33 11 -68 53 -83 37 -13 44 -12 80 5 34 17 39 23
39 54 0 29 -4 36 -23 38 -17 3 -25 -2 -29 -17 -7 -29 -58 -29 -66 -1 -6 24
-45 27 -54 4z"/>
<path d="M10274 3115 c-13 -32 6 -66 44 -82 32 -13 42 -14 77 -2 45 16 69 52
54 81 -13 24 -50 23 -56 -2 -3 -13 -14 -20 -29 -20 -13 0 -28 9 -34 20 -13 23
-48 27 -56 5z"/>
<path d="M1455 3075 c-112 -25 -241 -95 -280 -153 l-25 -37 0 -265 0 -265 32
-55 c41 -73 187 -216 266 -263 83 -49 153 -71 196 -63 133 25 348 204 421 350
25 49 25 54 25 293 0 184 -3 252 -14 277 -27 65 -152 143 -282 176 -91 23
-246 26 -339 5z m310 -90 c77 -20 156 -58 194 -94 l31 -29 0 -166 0 -166 -185
0 -185 0 0 -236 0 -236 -27 6 c-71 17 -160 72 -229 140 -94 94 -124 156 -124
253 l0 73 190 0 190 0 0 235 0 235 43 0 c23 0 70 -7 102 -15z m-242 -192 c3
-31 4 -60 1 -65 -3 -4 -48 -8 -100 -8 l-94 0 0 59 c0 38 4 61 13 64 6 3 48 6
93 6 l81 1 6 -57z m25 -123 l23 -40 -136 0 c-74 0 -135 2 -135 5 0 2 8 20 17
40 l17 35 95 0 96 0 23 -40z m246 -231 c20 -9 29 -9 41 1 12 10 19 10 27 2 7
-7 25 -12 40 -12 l29 0 -3 -77 -3 -78 -43 -3 c-33 -2 -42 -7 -38 -18 4 -10 -3
-14 -29 -14 -24 0 -35 5 -35 15 0 10 -11 15 -35 15 -47 0 -59 24 -50 101 7 57
8 59 36 59 16 0 29 5 29 10 0 13 3 13 34 -1z"/>
<path d="M1743 2805 c-33 -32 -35 -37 -21 -51 14 -14 18 -14 37 2 11 10 21 26
21 36 0 9 7 21 16 26 15 8 15 10 0 15 -12 5 -29 -5 -53 -28z"/>
<path d="M1847 2813 c-4 -3 -7 -13 -7 -21 0 -9 -8 -25 -17 -36 -18 -21 -18
-21 5 -2 26 22 41 15 21 -10 -13 -16 -12 -16 6 -6 11 6 28 13 38 16 9 3 17 10
17 17 0 6 -6 9 -14 6 -18 -7 -36 11 -29 29 5 14 -8 19 -20 7z"/>
<path d="M1743 2700 c-28 -11 -31 -30 -4 -23 25 6 36 -14 20 -34 -11 -13 -11
-15 6 -12 23 5 41 59 19 59 -9 0 -12 5 -9 10 7 12 -2 12 -32 0z"/>
<path d="M1840 2697 c0 -16 32 -47 48 -47 19 0 14 14 -11 38 -27 25 -37 28
-37 9z"/>
<path d="M1415 2440 c-4 -6 -5 -31 -4 -57 3 -37 0 -47 -14 -49 -14 -2 -17 7
-17 52 0 42 -3 54 -15 54 -13 0 -15 -15 -13 -97 l3 -98 78 -3 c63 -2 78 0 83
13 8 20 -4 34 -15 17 -9 -16 -136 -13 -136 3 0 6 34 11 78 13 l77 3 0 79 0 80
-49 0 c-28 0 -53 -5 -56 -10z"/>
<path d="M1357 2834 c-4 -4 -7 -29 -7 -56 l0 -48 81 0 80 0 -3 53 -3 52 -70 3
c-39 1 -74 0 -78 -4z"/>
<path d="M1830 2420 c0 -5 7 -10 15 -10 8 0 15 5 15 10 0 6 -7 10 -15 10 -8 0
-15 -4 -15 -10z"/>
<path d="M1717 2413 c-4 -3 -7 -28 -7 -55 0 -41 3 -48 20 -48 22 0 24 11 14
73 -6 36 -14 44 -27 30z"/>
<path d="M1810 2401 c0 -11 -4 -23 -10 -26 -16 -10 -12 -65 5 -65 12 0 15 13
15 55 0 30 -2 55 -5 55 -3 0 -5 -9 -5 -19z"/>
<path d="M1873 2408 c1 -8 -7 -12 -20 -10 -21 3 -23 -1 -23 -42 l0 -46 40 0
40 0 0 55 c0 48 -2 55 -20 55 -11 0 -19 -6 -17 -12z"/>
<path d="M1772 2330 c0 -14 2 -19 5 -12 2 6 2 18 0 25 -3 6 -5 1 -5 -13z"/>
<path d="M1805 2260 c3 -5 8 -10 11 -10 2 0 4 5 4 10 0 6 -5 10 -11 10 -5 0
-7 -4 -4 -10z"/>
<path d="M2768 3019 c-16 -9 -18 -29 -18 -182 0 -121 4 -177 12 -185 16 -16
23 -15 42 4 13 13 16 42 16 160 l0 145 83 -3 82 -3 3 -152 c3 -157 7 -172 47
-157 13 5 15 35 15 183 0 124 -4 181 -12 189 -15 15 -245 16 -270 1z"/>
<path d="M3138 3019 c-16 -9 -18 -29 -18 -183 0 -146 3 -176 16 -187 28 -23
49 1 52 63 l3 56 61 4 c53 4 65 9 89 36 24 27 29 41 29 86 0 91 -57 136 -170
136 -25 0 -53 -5 -62 -11z m151 -85 c27 -34 26 -50 -4 -79 -16 -17 -35 -25
-60 -25 l-35 0 0 65 0 65 39 0 c31 0 44 -6 60 -26z"/>
<path d="M3505 3011 c-145 -66 -153 -282 -13 -350 137 -66 285 24 287 174 2
139 -146 234 -274 176z m143 -65 c80 -44 82 -180 2 -221 -38 -20 -104 -19
-136 1 -73 48 -71 178 4 218 33 19 99 20 130 2z"/>
<path d="M3958 3008 c-13 -13 -39 -30 -59 -39 -74 -34 -108 -101 -88 -174 13
-45 60 -94 100 -102 16 -3 35 -16 44 -29 8 -13 22 -24 30 -24 8 0 22 11 30 24
9 13 29 26 45 29 40 9 98 69 106 112 14 75 -41 157 -115 171 -17 4 -31 13 -31
20 0 7 -9 18 -20 24 -16 8 -24 6 -42 -12z m-12 -256 c-9 -9 -57 28 -68 53 -16
35 -2 73 35 95 l32 20 3 -81 c2 -45 1 -84 -2 -87z m134 130 c11 -13 20 -36 20
-49 0 -25 -49 -83 -69 -83 -7 0 -11 31 -11 84 0 80 1 84 20 79 11 -3 29 -17
40 -31z"/>
<path d="M4238 3019 c-16 -9 -18 -29 -18 -182 0 -121 4 -177 12 -185 19 -19
232 -16 252 4 39 38 9 54 -101 54 l-93 0 0 45 0 44 73 3 72 3 0 30 0 30 -72 3
-73 3 0 44 0 45 93 0 c110 0 140 16 101 54 -12 13 -38 16 -122 16 -59 0 -115
-5 -124 -11z"/>
<path d="M4635 3011 c-116 -52 -150 -204 -68 -301 57 -68 156 -89 233 -50 31
16 40 26 40 46 0 32 -25 41 -60 20 -94 -55 -212 34 -186 141 4 14 22 41 41 60
27 27 41 33 75 33 23 0 54 -7 70 -16 35 -21 60 -12 60 20 0 19 -10 29 -43 45
-53 26 -109 26 -162 2z"/>
<path d="M5013 3023 c-35 -7 -110 -80 -123 -119 -18 -52 -8 -136 20 -177 37
-53 84 -80 148 -84 90 -6 168 45 130 84 -17 16 -20 16 -53 0 -95 -45 -185 7
-185 108 0 100 91 153 185 108 33 -16 37 -16 52 -1 46 47 -70 101 -174 81z"/>
<path d="M5267 3019 c-15 -9 -17 -30 -17 -183 0 -141 3 -176 15 -186 8 -7 21
-10 29 -7 8 3 55 59 106 124 51 65 96 120 101 121 5 2 9 -49 9 -116 0 -125 6
-141 45 -126 13 5 15 35 15 184 0 183 -6 209 -41 195 -8 -3 -52 -55 -98 -116
-46 -60 -90 -114 -98 -120 -11 -9 -13 9 -13 104 0 101 -2 118 -18 126 -11 6
-24 6 -35 0z"/>
<path d="M5734 3011 c-144 -67 -144 -287 1 -352 69 -32 165 -19 218 29 57 52
75 168 37 242 -44 86 -165 124 -256 81z m165 -77 c60 -50 60 -148 0 -198 -24
-20 -42 -26 -79 -26 -121 0 -172 146 -79 225 43 35 115 35 158 -1z"/>
<path d="M6076 3014 c-24 -23 -23 -335 0 -359 9 -9 23 -14 31 -11 8 3 17 6 19
6 2 0 4 34 4 75 l0 75 95 0 95 0 0 -74 c0 -58 3 -75 16 -80 21 -8 20 -8 38 10
24 23 24 335 0 358 -12 12 -20 13 -35 6 -16 -9 -19 -22 -19 -80 l0 -70 -95 0
-95 0 0 70 c0 58 -3 71 -19 80 -15 7 -23 6 -35 -6z"/>
<path d="M6567 3017 c-19 -14 -147 -316 -147 -345 0 -22 22 -35 44 -26 8 3 22
23 30 45 l16 39 74 0 74 0 15 -39 c16 -40 43 -59 60 -42 7 7 17 7 29 0 29 -16
41 0 93 126 26 63 51 115 55 115 4 0 29 -52 55 -115 26 -63 53 -119 60 -125
15 -12 41 -4 49 15 6 17 -120 322 -144 348 -9 10 -23 15 -31 12 -9 -3 -44 -74
-79 -158 -34 -84 -66 -156 -70 -160 -4 -4 -36 62 -71 148 -35 86 -71 160 -80
165 -10 6 -22 5 -32 -3z m62 -219 c1 -5 -20 -8 -45 -8 -50 0 -50 0 -16 79 l15
36 23 -50 c12 -27 23 -53 23 -57z"/>
<path d="M7123 3023 c-10 -3 -13 -51 -13 -189 l0 -184 26 -6 c44 -11 168 1
195 20 48 31 64 108 34 165 -18 36 -79 61 -145 61 l-50 0 0 64 c0 49 -4 65
-16 70 -9 3 -16 6 -17 5 -1 0 -8 -3 -14 -6z m177 -218 c7 -8 13 -26 13 -40 0
-42 -20 -55 -84 -55 l-59 0 0 55 0 55 59 0 c40 0 63 -5 71 -15z"/>
<path d="M7448 3019 c-16 -9 -18 -29 -18 -182 0 -166 5 -197 31 -197 25 0 39
35 39 96 l0 64 90 0 89 0 3 -71 c2 -54 7 -75 20 -82 12 -8 21 -7 32 2 13 11
16 41 16 187 0 156 -2 174 -18 183 -11 6 -24 6 -35 0 -14 -8 -17 -24 -17 -79
l0 -70 -90 0 -90 0 0 64 c0 45 -5 69 -16 80 -8 9 -16 16 -17 16 -1 0 -10 -5
-19 -11z"/>
<path d="M7832 3018 c-8 -8 -12 -63 -12 -183 0 -120 4 -175 12 -183 17 -17
131 -15 173 2 19 8 44 30 55 48 55 90 -12 186 -132 187 l-38 1 0 54 c0 69 -28
104 -58 74z m162 -214 c41 -40 6 -94 -61 -94 l-43 0 0 55 0 55 44 0 c27 0 51
-6 60 -16z"/>
<path d="M8116 3014 c-24 -23 -24 -335 0 -358 19 -19 26 -20 42 -4 8 8 12 64
12 185 0 160 -1 173 -19 183 -15 7 -23 6 -35 -6z"/>
<path d="M8257 3019 c-15 -9 -17 -30 -17 -182 0 -173 4 -197 37 -197 7 0 56
57 110 126 l98 126 2 -98 c3 -118 8 -140 29 -148 39 -15 44 9 44 190 0 159 -2
174 -19 183 -25 14 -31 7 -137 -128 l-89 -115 -3 117 c-2 99 -5 118 -20 126
-11 6 -24 6 -35 0z"/>
<path d="M8886 3017 c-19 -15 -146 -313 -146 -343 0 -23 21 -37 44 -28 7 3 35
58 61 122 27 64 51 120 55 125 3 4 28 -46 54 -110 27 -65 54 -124 62 -132 14
-16 42 -9 50 14 8 19 -133 352 -151 359 -7 2 -20 -1 -29 -7z"/>
<path d="M9117 3019 c-15 -9 -17 -30 -17 -182 0 -173 4 -197 37 -197 7 0 56
57 110 126 l98 126 2 -98 c3 -118 8 -140 29 -148 39 -15 44 9 44 190 0 162 -1
174 -20 184 -24 13 -29 9 -140 -135 l-85 -110 -3 117 c-2 100 -5 119 -20 127
-11 6 -24 6 -35 0z"/>
<path d="M9507 3019 c-15 -9 -17 -30 -17 -182 0 -121 4 -177 12 -185 8 -8 54
-12 140 -12 126 0 128 0 128 -22 0 -34 15 -50 41 -46 22 3 24 8 27 65 3 54 1
62 -18 68 -19 6 -20 14 -20 150 0 117 -3 146 -16 159 -12 12 -20 13 -35 6 -17
-10 -19 -23 -19 -160 l0 -150 -85 0 -85 0 0 150 c0 133 -2 150 -18 159 -11 6
-24 6 -35 0z"/>
<path d="M9898 3019 c-16 -9 -18 -29 -18 -182 0 -121 4 -177 12 -185 18 -18
228 -16 254 2 15 12 17 18 8 33 -9 15 -27 18 -108 21 l-96 3 0 44 0 44 73 3
72 3 0 30 0 30 -72 3 -73 3 0 44 0 45 93 0 c110 0 140 16 101 54 -12 13 -38
16 -122 16 -59 0 -115 -5 -124 -11z"/>
<path d="M10217 3019 c-15 -9 -17 -30 -17 -182 0 -173 4 -197 37 -197 6 0 56
56 110 125 l98 125 2 -98 c3 -116 8 -138 29 -146 39 -15 44 9 44 190 0 157 -2
174 -18 183 -10 5 -23 7 -29 3 -6 -4 -54 -63 -107 -131 l-96 -123 0 120 c0
106 -2 123 -18 131 -11 6 -24 6 -35 0z"/>
<path d="M10271 2481 c-8 -14 -6 -25 10 -45 40 -51 139 -28 139 33 0 31 -30
40 -48 13 -18 -27 -48 -28 -55 -2 -7 25 -33 26 -46 1z"/>
<path d="M676 2482 c-2 -4 3 -22 11 -40 18 -36 58 -62 98 -62 18 0 28 -7 35
-26 19 -48 14 -57 -21 -39 -16 9 -47 15 -67 13 l-37 -3 35 -38 c29 -32 44 -40
83 -44 32 -4 51 -12 58 -24 9 -17 6 -18 -35 -13 -25 4 -53 4 -62 0 -15 -6 -15
-8 2 -27 30 -34 74 -52 110 -46 29 5 37 1 54 -24 l21 -29 -43 0 c-24 0 -53 -6
-63 -14 -18 -13 -17 -15 15 -35 38 -23 99 -28 118 -9 9 9 17 6 37 -12 31 -30
32 -40 0 -40 -28 0 -75 -20 -75 -31 0 -13 56 -39 82 -39 13 0 34 7 46 16 24
16 72 12 72 -6 0 -5 -16 -16 -35 -25 -39 -19 -61 -42 -51 -53 4 -4 32 -7 61
-7 42 0 59 5 77 23 22 19 28 21 56 11 39 -13 40 -22 5 -45 -35 -22 -63 -56
-56 -68 3 -4 26 -6 52 -2 36 5 53 14 81 45 22 24 36 51 38 71 3 37 -23 97 -49
110 -16 9 -19 5 -25 -27 -5 -26 -2 -45 9 -65 19 -32 12 -34 -43 -12 -34 14
-38 19 -30 34 18 33 12 95 -11 116 -29 26 -41 4 -35 -63 l5 -53 -29 15 c-39
20 -44 31 -26 57 19 27 20 74 3 106 -13 22 -14 22 -29 5 -23 -26 -31 -64 -19
-97 l11 -27 -27 19 c-16 11 -36 29 -45 39 -17 19 -17 21 6 43 39 36 47 120 11
120 -19 0 -55 -62 -55 -96 l-1 -29 -34 40 -34 40 35 28 c28 24 34 35 34 68 0
21 -3 39 -8 39 -20 0 -52 -33 -62 -65 -13 -39 -23 -38 -45 5 -15 29 -15 30 24
54 40 25 64 77 44 97 -13 13 -72 -27 -85 -59 l-11 -27 -16 49 c-9 30 -12 51
-6 53 35 11 74 46 83 72 11 30 10 31 -16 31 -30 -1 -53 -15 -70 -45 -11 -20
-12 -19 -18 3 -5 16 -9 20 -14 12 -6 -9 -15 -7 -36 8 -33 23 -80 36 -88 24z"/>
<path d="M2771 2391 c-12 -21 -15 -268 -5 -295 3 -9 16 -16 28 -16 15 1 44 31
101 107 l80 106 5 -104 c5 -103 5 -104 30 -104 l25 0 3 151 c2 126 0 153 -13
164 -20 17 -31 7 -124 -115 l-76 -100 -5 110 c-4 92 -8 110 -22 113 -9 2 -21
-6 -27 -17z"/>
<path d="M3107 2403 c-4 -3 -7 -78 -7 -165 l0 -158 24 0 c29 0 36 16 36 86 l0
54 75 0 75 0 0 -57 c0 -66 9 -87 36 -81 18 3 19 16 22 159 2 138 1 157 -14
163 -30 11 -44 -13 -44 -75 l0 -59 -75 0 -75 0 0 51 c0 28 -5 59 -10 70 -11
19 -31 25 -43 12z"/>
<path d="M3548 2392 c-7 -10 -28 -24 -46 -31 -112 -46 -110 -204 2 -241 19 -6
37 -17 40 -25 3 -8 15 -15 26 -15 11 0 23 7 26 15 3 8 20 19 38 25 62 20 102
85 90 147 -8 40 -52 88 -91 98 -15 3 -33 15 -41 26 -16 24 -27 24 -44 1z m-8
-152 c0 -38 -4 -70 -9 -70 -17 0 -50 35 -56 60 -4 18 0 34 15 53 37 47 50 36
50 -43z m109 44 c27 -35 26 -59 -4 -89 -38 -39 -45 -32 -45 45 0 79 13 90 49
44z"/>
<path d="M3845 2396 c-68 -30 -103 -103 -92 -188 7 -54 33 -88 87 -115 53 -28
92 -29 146 -4 64 29 89 72 89 153 0 72 -14 102 -68 142 -33 25 -121 32 -162
12z m146 -75 c48 -49 38 -140 -21 -174 -77 -46 -159 4 -160 96 0 40 5 53 29
78 24 24 38 29 76 29 38 0 52 -5 76 -29z"/>
<path d="M4131 2392 c-12 -22 -16 -268 -5 -296 3 -9 17 -16 30 -16 22 0 24 4
24 49 l0 48 46 6 c59 6 97 34 108 80 22 85 -25 139 -128 145 -57 4 -65 2 -75
-16z m133 -58 c9 -8 16 -28 16 -44 0 -34 -23 -50 -69 -50 -31 0 -31 0 -31 55
l0 55 34 0 c19 0 42 -7 50 -16z"/>
<path d="M4382 2402 c-9 -7 -12 -46 -10 -163 l3 -154 25 0 c24 0 25 3 30 79
l5 79 35 -72 c19 -40 40 -77 46 -82 22 -18 42 3 80 84 l39 82 3 -87 c3 -85 4
-88 26 -88 13 0 27 7 30 16 3 9 6 74 6 145 0 210 -24 221 -109 52 l-58 -117
-59 114 c-33 63 -63 115 -69 117 -5 1 -16 -1 -23 -5z"/>
<path d="M4845 2401 c-22 -37 -125 -297 -121 -308 10 -26 46 -14 63 22 16 34
18 35 78 35 60 0 62 -1 78 -35 17 -36 53 -48 63 -22 2 7 -24 80 -58 162 -60
142 -84 176 -103 146z m55 -188 c0 -8 -14 -13 -35 -13 -40 0 -41 4 -18 62 l17
42 18 -39 c9 -22 18 -46 18 -52z"/>
<path d="M5041 2396 c-8 -9 -11 -61 -9 -162 l3 -149 116 -3 115 -3 10 -32 c6
-22 15 -32 29 -32 17 0 20 8 23 52 3 43 0 53 -17 63 -19 9 -21 22 -23 143 -3
124 -4 132 -23 132 -19 0 -20 -8 -25 -135 l-5 -135 -72 -3 -73 -3 0 134 c0
114 -2 136 -16 141 -21 8 -20 8 -33 -8z"/>
<path d="M5377 2404 c-4 -4 -7 -79 -7 -166 0 -157 0 -158 23 -158 16 0 42 26
102 105 l80 106 3 -83 c3 -114 8 -130 35 -126 21 3 22 7 25 157 2 151 -1 170
-30 171 -4 0 -37 -39 -74 -87 -37 -49 -77 -99 -88 -111 l-21 -24 -5 109 c-4
87 -8 108 -20 111 -9 1 -19 0 -23 -4z"/>
<path d="M5764 2386 c-51 -32 -74 -77 -74 -149 0 -90 56 -153 145 -163 131
-15 222 119 166 242 -26 57 -72 87 -140 91 -46 3 -63 0 -97 -21z m139 -47 c32
-15 57 -60 57 -104 0 -29 -8 -45 -35 -72 -33 -33 -39 -35 -81 -30 -52 5 -79
26 -94 73 -31 93 63 174 153 133z"/>
<path d="M6071 2396 c-8 -9 -11 -61 -9 -162 l3 -149 25 0 c24 0 25 4 30 65 l5
65 75 0 75 0 5 -65 c4 -53 8 -65 24 -68 10 -2 22 2 27 10 5 7 9 77 9 154 0
148 -7 172 -44 158 -12 -5 -16 -20 -16 -70 l0 -64 -80 0 -80 0 0 64 c0 49 -4
65 -16 70 -21 8 -20 8 -33 -8z"/>
<path d="M6401 2391 c-12 -21 -15 -268 -5 -295 3 -9 17 -16 30 -16 22 0 23 4
26 68 l3 67 75 0 75 0 5 -65 c5 -61 6 -65 30 -65 l25 0 3 151 c2 126 0 153
-13 164 -27 23 -45 -5 -45 -71 l0 -59 -80 0 -79 0 -3 67 c-2 54 -6 68 -20 71
-9 2 -21 -6 -27 -17z"/>
<path d="M6737 2403 c-4 -3 -7 -78 -7 -165 l0 -158 81 0 c76 0 82 2 110 29 40
40 41 98 2 141 -22 24 -39 32 -80 37 l-53 6 0 39 c0 59 -28 97 -53 71z m141
-185 c7 -7 12 -24 12 -40 0 -32 -24 -48 -69 -48 -30 0 -31 1 -31 50 l0 50 38
0 c21 0 43 -5 50 -12z"/>
<path d="M6981 2396 c-8 -9 -11 -61 -9 -162 l3 -149 25 0 25 0 3 154 c2 117
-1 156 -10 163 -18 11 -24 10 -37 -6z"/>
<path d="M7087 2403 c-16 -15 -5 -47 34 -100 29 -38 39 -60 33 -69 -5 -7 -26
-38 -48 -68 -40 -57 -42 -86 -8 -86 12 0 34 21 57 55 21 30 42 55 45 55 4 0
25 -25 45 -55 28 -40 45 -55 62 -55 36 0 29 32 -22 102 -24 33 -41 66 -38 72
4 6 25 35 47 64 31 43 38 57 29 70 -17 28 -35 20 -75 -33 -21 -27 -41 -51 -46
-53 -5 -1 -25 22 -46 53 -36 52 -54 64 -69 48z"/>
<path d="M7472 2401 c-8 -5 -12 -17 -10 -27 2 -15 14 -20 51 -22 l47 -3 0
-122 c0 -129 6 -151 36 -145 17 3 19 15 22 136 l3 132 43 0 c51 0 76 21 56 45
-10 12 -37 15 -124 15 -61 0 -117 -4 -124 -9z"/>
<path d="M7761 2396 c-8 -9 -11 -61 -9 -162 l3 -149 115 0 c108 0 115 1 115
20 0 18 -8 20 -87 23 l-88 3 0 39 0 39 63 3 c59 3 62 4 62 28 0 24 -3 25 -62
28 l-63 3 0 39 0 40 85 0 c67 0 87 3 91 15 4 8 1 22 -6 30 -17 21 -202 22
-219 1z"/>
<path d="M8020 2395 c-11 -13 -6 -25 26 -72 22 -32 42 -63 46 -69 4 -6 -13
-39 -37 -72 -51 -69 -58 -102 -22 -102 15 0 33 16 60 55 21 30 42 55 46 55 4
0 25 -25 46 -55 28 -42 43 -55 59 -53 34 5 29 30 -20 97 -32 44 -44 69 -38 77
5 7 27 38 48 69 35 49 38 57 25 71 -22 21 -39 11 -78 -46 -18 -28 -37 -50 -41
-50 -3 0 -22 21 -40 48 -48 66 -59 73 -80 47z"/>
<path d="M8317 2403 c-4 -3 -7 -78 -7 -165 l0 -158 24 0 c29 0 36 16 36 86 l0
54 75 0 75 0 0 -57 c0 -66 9 -87 36 -81 18 3 19 16 22 159 2 138 1 157 -14
163 -30 11 -44 -13 -44 -75 l0 -59 -75 0 -75 0 0 51 c0 28 -5 59 -10 70 -11
19 -31 25 -43 12z"/>
<path d="M8704 2386 c-51 -32 -74 -77 -74 -149 0 -90 56 -153 145 -163 131
-15 222 119 166 242 -26 57 -72 87 -140 91 -46 3 -63 0 -97 -21z m145 -50 c33
-17 51 -54 51 -102 0 -28 -8 -44 -35 -71 -33 -33 -39 -35 -81 -30 -52 5 -79
26 -94 73 -32 96 67 177 159 130z"/>
<path d="M9085 2400 c-23 -37 -122 -296 -118 -307 3 -8 15 -13 27 -11 16 2 30
26 63 103 23 55 44 104 46 109 2 5 23 -40 48 -100 36 -87 50 -110 67 -112 12
-2 24 3 27 10 5 12 -81 235 -114 297 -12 22 -36 28 -46 11z"/>
<path d="M9340 2391 c-96 -50 -117 -193 -40 -270 80 -80 215 -59 267 42 21 42
20 118 -4 164 -39 74 -146 105 -223 64z m148 -66 c36 -30 48 -73 32 -119 -15
-47 -42 -68 -93 -73 -38 -5 -48 -1 -76 23 -57 51 -50 152 13 183 39 19 92 13
124 -14z"/>
<path d="M9642 2402 c-9 -7 -12 -46 -10 -163 l3 -154 25 0 25 0 3 133 3 132
73 0 c59 0 75 3 80 16 13 33 -13 44 -103 44 -47 0 -92 -4 -99 -8z"/>
<path d="M9881 2396 c-8 -9 -11 -61 -9 -162 l3 -149 25 0 c19 0 41 22 105 104
l80 104 5 -104 c5 -103 5 -104 30 -104 l25 0 3 151 c2 120 0 154 -11 163 -8 6
-21 9 -28 6 -8 -4 -50 -54 -94 -112 l-80 -106 -3 103 c-2 68 -7 107 -15 112
-17 11 -23 10 -36 -6z"/>
<path d="M10217 2404 c-4 -4 -7 -79 -7 -166 0 -157 0 -158 23 -158 16 0 42 26
102 105 l80 106 3 -83 c3 -114 8 -130 35 -126 21 3 22 7 25 157 2 151 -1 170
-30 171 -4 0 -37 -39 -74 -87 -37 -49 -77 -99 -88 -111 l-21 -24 -5 109 c-4
87 -8 108 -20 111 -9 1 -19 0 -23 -4z"/>
<path d="M2230 2245 c0 -28 26 -85 38 -85 4 0 13 -4 21 -9 12 -8 10 -16 -13
-50 -33 -47 -46 -52 -46 -15 0 46 -47 115 -62 92 -17 -27 -8 -81 19 -116 l26
-35 -34 -28 c-43 -36 -50 -36 -43 -1 6 30 -18 102 -34 102 -12 0 -32 -46 -32
-73 1 -12 7 -33 15 -47 21 -36 19 -44 -16 -64 -35 -21 -45 -16 -30 12 15 29
14 65 -4 88 -15 19 -15 18 -36 -6 -20 -24 -21 -39 -7 -113 2 -14 -7 -23 -35
-34 -43 -18 -53 -13 -38 15 13 24 14 72 2 90 -6 10 -15 5 -35 -19 -23 -27 -27
-40 -24 -76 2 -24 -1 -45 -7 -47 -5 -3 -3 -5 6 -5 9 -1 22 -13 30 -28 20 -38
109 -69 132 -47 10 10 -32 64 -59 76 -32 15 -30 22 11 37 33 12 38 11 67 -14
27 -23 39 -26 76 -22 23 2 46 7 49 11 10 9 -20 38 -55 53 -28 12 -32 17 -22
28 16 19 32 19 67 -1 32 -19 86 -14 118 10 18 13 17 14 -13 30 -17 9 -43 16
-58 16 l-28 0 29 30 c22 23 32 27 46 20 27 -15 78 -12 110 7 50 30 30 53 -49
53 l-33 0 15 29 c14 26 19 28 59 24 39 -5 48 -1 80 27 52 46 48 54 -25 47 -49
-4 -65 -10 -80 -29 l-18 -23 0 28 c0 18 -11 39 -29 58 -36 36 -51 37 -51 4z"/>
<path d="M1481 1796 c81 -32 121 -57 115 -73 -5 -13 -4 -13 8 -4 11 9 21 6 47
-16 l34 -27 -29 31 -28 31 43 23 c24 12 62 28 84 36 40 13 40 13 5 8 -19 -3
-59 -17 -89 -32 l-54 -28 -56 27 c-31 15 -69 30 -86 33 -27 5 -27 4 6 -9z"/>
<path d="M1559 1693 c-13 -16 -12 -17 4 -4 9 7 17 15 17 17 0 8 -8 3 -21 -13z"/>
</g>
</svg>
