<?xml version="1.0" standalone="no"?>
<!DOCTYPE svg PUBLIC "-//W3C//DTD SVG 20010904//EN"
 "http://www.w3.org/TR/2001/REC-SVG-20010904/DTD/svg10.dtd">
<svg version="1.0" xmlns="http://www.w3.org/2000/svg"
 width="1103.000000pt" height="466.000000pt" viewBox="0 0 1103.000000 466.000000"
 preserveAspectRatio="xMidYMid meet">

<g transform="translate(0.000000,466.000000) scale(0.100000,-0.100000)"
fill="#000000" stroke="none">
<path d="M1266 3358 c-40 -63 -7 -158 54 -158 17 0 30 4 30 8 0 13 -32 39 -62
51 l-28 10 25 25 c16 16 25 36 25 56 0 36 -23 40 -44 8z"/>
<path d="M1930 3345 c0 -22 8 -43 21 -56 11 -11 19 -22 17 -23 -1 -1 -18 -8
-36 -16 -18 -7 -37 -21 -43 -31 -9 -17 -6 -19 26 -19 29 0 39 5 53 30 9 16 19
30 22 30 3 0 21 -10 40 -21 33 -20 33 -22 15 -35 -41 -28 -56 -47 -43 -56 21
-13 35 -9 67 18 l32 26 34 -23 c42 -29 43 -35 7 -42 -16 -3 -39 -15 -53 -25
l-24 -20 28 -13 c26 -12 34 -10 74 11 l45 24 19 -23 c27 -33 24 -41 -15 -41
-19 0 -39 -7 -47 -16 -11 -14 -10 -18 6 -30 24 -18 43 -17 75 1 34 20 36 19
59 -19 28 -45 26 -53 -9 -48 -16 2 -42 1 -56 -2 -26 -7 -26 -7 -8 -28 16 -17
27 -19 72 -15 52 6 52 6 67 -30 20 -47 19 -56 -4 -43 -23 12 -91 14 -91 2 0
-5 11 -19 25 -32 19 -18 36 -24 64 -23 36 2 39 -1 45 -29 8 -42 8 -66 -2 -52
-19 30 -84 44 -98 22 -12 -19 43 -58 82 -58 l34 0 0 -52 0 -51 -24 22 c-21 20
-96 42 -96 28 0 -37 58 -87 100 -87 20 0 22 -4 16 -31 -3 -17 -6 -35 -6 -39 0
-5 -13 5 -29 21 -35 34 -81 40 -81 10 0 -21 63 -81 86 -81 15 0 13 -24 -8 -79
l-8 -23 -23 33 c-12 19 -34 39 -47 46 -24 12 -25 11 -28 -18 -4 -34 19 -66 57
-80 18 -7 22 -15 18 -32 -6 -20 -5 -20 7 -4 8 10 26 17 45 17 51 0 121 47 121
82 0 14 -70 9 -99 -7 l-29 -14 10 38 c9 35 13 39 50 44 47 6 83 38 94 81 7 28
6 28 -27 21 -19 -4 -46 -16 -61 -27 l-28 -19 0 30 c0 21 5 31 15 31 48 0 105
60 105 110 0 30 -34 18 -82 -28 l-38 -36 0 47 c0 41 3 49 24 57 33 12 66 58
66 90 0 23 -3 27 -20 23 -12 -3 -33 -21 -48 -41 l-27 -35 -7 37 c-7 34 -5 40
27 70 28 26 35 41 35 70 0 23 -5 36 -13 36 -18 0 -53 -39 -62 -69 -7 -22 -9
-21 -27 22 l-20 45 23 32 c23 30 31 101 14 118 -10 10 -55 -46 -55 -69 0 -28
-13 -24 -33 11 -16 27 -17 33 -3 74 15 44 8 107 -13 121 -15 8 -43 -64 -36
-92 6 -26 -2 -25 -38 5 -15 13 -17 25 -12 66 5 41 2 57 -15 85 -27 43 -45 29
-44 -35 1 -43 0 -44 -20 -31 -15 10 -22 28 -26 65 -5 48 -30 92 -53 92 -5 0
-8 -21 -5 -50 3 -27 3 -50 1 -50 -2 0 -17 7 -33 15 -23 12 -30 23 -30 44 0 28
-33 81 -51 81 -5 0 -9 -16 -9 -35z"/>
<path d="M1143 3314 c-10 -15 -18 -46 -17 -68 0 -29 -6 -46 -21 -58 -28 -24
-32 -22 -27 12 2 16 1 41 -2 56 -6 22 -9 24 -23 12 -29 -23 -43 -72 -33 -109
9 -30 7 -37 -20 -64 l-30 -30 0 41 c0 22 -7 49 -15 60 -15 19 -15 19 -30 0
-20 -26 -19 -81 1 -116 16 -26 16 -29 -6 -61 l-24 -32 -17 40 c-20 47 -37 62
-50 42 -16 -25 -10 -76 12 -103 19 -25 20 -31 9 -72 -15 -52 -27 -56 -42 -14
-18 54 -68 67 -68 19 0 -23 10 -42 38 -69 33 -34 37 -41 29 -69 -9 -37 -20
-39 -35 -6 -11 23 -56 44 -68 32 -15 -14 20 -80 52 -99 31 -18 34 -24 34 -66
l0 -47 -25 32 c-30 37 -83 60 -91 38 -12 -30 43 -101 87 -110 16 -4 29 -11 29
-17 0 -7 4 -7 13 0 6 5 27 13 44 17 53 11 99 85 53 85 -26 0 -80 -27 -80 -40
0 -6 -5 -10 -11 -10 -6 0 -9 19 -7 48 3 46 4 47 38 50 36 4 80 36 80 59 0 17
-38 16 -74 -2 -36 -19 -39 -16 -28 26 7 29 13 34 38 35 16 0 35 1 42 2 15 2
52 39 52 52 0 13 -56 13 -81 0 -23 -13 -25 -2 -7 46 11 32 12 32 62 27 36 -3
57 0 71 10 30 23 7 40 -49 36 -54 -5 -57 4 -18 50 28 34 28 34 55 16 27 -17
57 -16 87 5 13 9 12 12 -4 25 -11 8 -35 15 -53 15 -39 0 -41 9 -10 38 29 27
31 27 66 1 22 -16 36 -19 60 -14 17 4 31 10 31 14 0 14 -34 39 -62 46 -35 9
-35 19 1 44 36 26 39 26 59 2 21 -24 52 -33 71 -22 13 8 13 12 1 26 -8 10 -26
21 -39 27 l-26 9 25 20 c14 11 17 17 8 13 -14 -5 -16 2 -15 42 2 56 -14 67
-40 28z"/>
<path d="M1348 3308 c-16 -5 -28 -13 -28 -18 0 -23 82 -27 100 -5 10 12 8 16
-15 25 -14 5 -27 10 -28 9 -1 0 -14 -5 -29 -11z"/>
<path d="M1820 3309 c-24 -10 -24 -11 -6 -25 23 -17 82 -19 92 -3 15 25 -45
45 -86 28z"/>
<path d="M1455 3075 c-112 -25 -241 -95 -280 -153 l-25 -37 0 -265 0 -265 32
-55 c41 -73 187 -216 266 -263 83 -49 153 -71 196 -63 133 25 348 204 421 350
25 49 25 54 25 293 0 184 -3 252 -14 277 -27 65 -152 143 -282 176 -91 23
-246 26 -339 5z m310 -90 c77 -20 156 -58 194 -94 l31 -29 0 -166 0 -166 -185
0 -185 0 0 -236 0 -236 -27 6 c-71 17 -160 72 -229 140 -94 94 -124 156 -124
253 l0 73 190 0 190 0 0 235 0 235 43 0 c23 0 70 -7 102 -15z m-242 -192 c3
-31 4 -60 1 -65 -3 -4 -48 -8 -100 -8 l-94 0 0 59 c0 38 4 61 13 64 6 3 48 6
93 6 l81 1 6 -57z m25 -123 l23 -40 -136 0 c-74 0 -135 2 -135 5 0 2 8 20 17
40 l17 35 95 0 96 0 23 -40z m246 -231 c20 -9 29 -9 41 1 12 10 19 10 27 2 7
-7 25 -12 40 -12 l29 0 -3 -77 -3 -78 -43 -3 c-33 -2 -42 -7 -38 -18 4 -10 -3
-14 -29 -14 -24 0 -35 5 -35 15 0 10 -11 15 -35 15 -47 0 -59 24 -50 101 7 57
8 59 36 59 16 0 29 5 29 10 0 13 3 13 34 -1z"/>
<path d="M1743 2805 c-33 -32 -35 -37 -21 -51 14 -14 18 -14 37 2 11 10 21 26
21 36 0 9 7 21 16 26 15 8 15 10 0 15 -12 5 -29 -5 -53 -28z"/>
<path d="M1847 2813 c-4 -3 -7 -13 -7 -21 0 -9 -8 -25 -17 -36 -18 -21 -18
-21 5 -2 26 22 41 15 21 -10 -13 -16 -12 -16 6 -6 11 6 28 13 38 16 9 3 17 10
17 17 0 6 -6 9 -14 6 -18 -7 -36 11 -29 29 5 14 -8 19 -20 7z"/>
<path d="M1743 2700 c-28 -11 -31 -30 -4 -23 25 6 36 -14 20 -34 -11 -13 -11
-15 6 -12 23 5 41 59 19 59 -9 0 -12 5 -9 10 7 12 -2 12 -32 0z"/>
<path d="M1840 2697 c0 -16 32 -47 48 -47 19 0 14 14 -11 38 -27 25 -37 28
-37 9z"/>
<path d="M1415 2440 c-4 -6 -5 -31 -4 -57 3 -37 0 -47 -14 -49 -14 -2 -17 7
-17 52 0 42 -3 54 -15 54 -13 0 -15 -15 -13 -97 l3 -98 78 -3 c63 -2 78 0 83
13 8 20 -4 34 -15 17 -9 -16 -136 -13 -136 3 0 6 34 11 78 13 l77 3 0 79 0 80
-49 0 c-28 0 -53 -5 -56 -10z"/>
<path d="M1357 2834 c-4 -4 -7 -29 -7 -56 l0 -48 81 0 80 0 -3 53 -3 52 -70 3
c-39 1 -74 0 -78 -4z"/>
<path d="M1830 2420 c0 -5 7 -10 15 -10 8 0 15 5 15 10 0 6 -7 10 -15 10 -8 0
-15 -4 -15 -10z"/>
<path d="M1717 2413 c-4 -3 -7 -28 -7 -55 0 -41 3 -48 20 -48 22 0 24 11 14
73 -6 36 -14 44 -27 30z"/>
<path d="M1810 2401 c0 -11 -4 -23 -10 -26 -16 -10 -12 -65 5 -65 12 0 15 13
15 55 0 30 -2 55 -5 55 -3 0 -5 -9 -5 -19z"/>
<path d="M1873 2408 c1 -8 -7 -12 -20 -10 -21 3 -23 -1 -23 -42 l0 -46 40 0
40 0 0 55 c0 48 -2 55 -20 55 -11 0 -19 -6 -17 -12z"/>
<path d="M1772 2330 c0 -14 2 -19 5 -12 2 6 2 18 0 25 -3 6 -5 1 -5 -13z"/>
<path d="M1805 2260 c3 -5 8 -10 11 -10 2 0 4 5 4 10 0 6 -5 10 -11 10 -5 0
-7 -4 -4 -10z"/>
<path d="M2957 3018 c-15 -8 -17 -30 -17 -181 0 -121 4 -177 12 -185 16 -16
23 -15 42 4 12 11 16 37 17 102 l0 87 50 -97 c65 -129 74 -129 137 -2 l47 95
5 -92 c4 -71 9 -94 22 -102 12 -8 21 -7 32 2 13 11 16 41 16 187 0 162 -1 174
-20 184 -29 16 -47 -8 -109 -143 -30 -64 -57 -117 -61 -117 -3 0 -35 58 -70
130 -35 71 -69 131 -75 134 -6 2 -19 0 -28 -6z"/>
<path d="M3502 3021 c-7 -4 -44 -83 -84 -176 -52 -125 -68 -173 -61 -184 18
-28 47 -18 69 24 l20 40 72 3 73 3 15 -38 c9 -21 20 -40 25 -44 7 -4 72 -4
100 0 4 1 14 19 23 41 l16 40 74 0 74 0 15 -39 c16 -40 43 -59 60 -42 7 7 17
7 29 0 29 -16 41 0 88 114 65 158 55 156 111 21 27 -65 55 -124 62 -132 15
-14 43 -7 51 13 7 18 -134 353 -151 359 -28 11 -41 -10 -103 -157 -34 -84 -66
-155 -70 -160 -3 -4 -35 63 -71 149 -35 85 -71 159 -80 164 -29 16 -46 -11
-113 -170 l-64 -154 -24 54 c-13 30 -44 101 -68 158 -43 101 -64 128 -88 113z
m43 -176 c9 -26 15 -48 12 -51 -3 -3 -23 -4 -45 -2 l-39 3 20 52 c11 29 23 51
27 48 4 -2 15 -25 25 -50z m344 -47 c1 -5 -20 -8 -45 -8 -50 0 -50 0 -16 79
l15 36 23 -50 c12 -27 23 -53 23 -57z"/>
<path d="M4382 3018 c-8 -8 -12 -65 -12 -189 0 -201 -6 -189 91 -189 76 0 123
20 149 62 55 90 -12 186 -132 187 l-38 1 0 54 c0 69 -28 104 -58 74z m162
-214 c41 -40 6 -94 -61 -94 l-43 0 0 55 0 55 44 0 c27 0 51 -6 60 -16z"/>
<path d="M4666 3014 c-24 -23 -24 -335 0 -358 19 -19 26 -20 42 -4 8 8 12 64
12 185 0 160 -1 173 -19 183 -15 7 -23 6 -35 -6z"/>
<path d="M4807 3018 c-15 -8 -17 -30 -17 -182 0 -188 6 -210 49 -186 19 10 21
20 22 103 l0 92 50 -97 c37 -74 54 -98 69 -98 15 0 32 24 69 98 l50 97 0 -87
c1 -65 5 -91 17 -102 19 -19 26 -20 42 -4 8 8 12 64 12 185 0 156 -2 173 -18
182 -10 5 -23 7 -29 3 -6 -4 -40 -65 -76 -137 l-65 -130 -65 131 c-36 72 -72
134 -80 137 -7 3 -21 1 -30 -5z"/>
<path d="M5353 3022 c-18 -11 -153 -340 -147 -356 7 -17 32 -28 45 -20 5 3 18
23 29 45 l20 39 70 0 70 0 20 -39 c11 -22 24 -42 29 -45 13 -8 38 3 45 19 5
15 -121 322 -144 349 -14 18 -20 19 -37 8z m46 -184 l20 -48 -48 0 -49 0 21
55 c12 30 25 51 29 47 4 -4 16 -28 27 -54z"/>
<path d="M5504 3015 c-33 -24 -6 -49 55 -53 l51 -3 0 -144 c0 -117 3 -146 16
-159 19 -19 26 -20 42 -4 8 8 12 58 12 159 l0 147 60 4 c33 1 87 1 120 0 l60
-4 0 -147 c0 -101 4 -151 12 -159 16 -16 23 -15 42 4 13 13 16 42 16 159 l0
144 51 3 c61 4 88 29 55 53 -27 21 -565 21 -592 0z"/>
<path d="M6158 3019 c-16 -9 -18 -29 -18 -182 0 -121 4 -177 12 -185 16 -16
131 -15 171 2 53 22 72 51 72 111 0 39 -5 59 -20 75 -27 31 -76 50 -125 50
l-40 0 0 54 c0 36 -5 60 -16 70 -8 9 -16 16 -17 16 -1 0 -10 -5 -19 -11z m153
-209 c23 -13 26 -62 3 -84 -9 -10 -33 -16 -60 -16 l-44 0 0 55 0 55 41 0 c22
0 49 -5 60 -10z"/>
<path d="M6443 3023 c-10 -3 -13 -51 -13 -188 0 -153 2 -184 15 -189 8 -3 22
-3 30 0 13 5 15 35 15 183 0 192 -5 212 -47 194z"/>
<path d="M6577 3019 c-15 -9 -17 -30 -17 -183 0 -146 3 -176 16 -187 11 -9 20
-10 32 -2 13 7 18 28 20 82 2 52 7 71 17 71 7 0 41 -33 75 -72 73 -85 86 -94
106 -78 24 21 16 39 -47 116 l-61 74 56 69 c61 76 67 95 36 111 -23 12 -31 6
-104 -88 -65 -82 -76 -81 -76 8 0 56 -3 71 -18 79 -11 6 -24 6 -35 0z"/>
<path d="M6996 3014 c-12 -12 -13 -20 -6 -35 9 -15 22 -19 65 -19 l55 0 0
-154 c0 -131 2 -155 16 -160 21 -8 20 -8 38 10 13 13 16 42 16 159 l0 144 51
3 c62 4 88 29 55 54 -30 21 -268 20 -290 -2z"/>
<path d="M7348 3019 c-16 -9 -18 -29 -18 -188 0 -154 2 -180 16 -185 24 -9
227 -7 242 3 8 4 12 19 10 32 -3 23 -6 24 -100 27 l-98 3 0 44 0 44 73 3 c67
3 72 5 75 27 5 32 -12 41 -85 41 l-63 0 0 45 0 44 98 3 c94 3 97 4 100 27 2
13 -2 28 -10 32 -19 12 -219 11 -240 -2z"/>
<path d="M7647 3019 c-26 -15 -21 -29 34 -107 l51 -73 -39 -54 c-74 -105 -76
-111 -57 -129 9 -9 21 -15 28 -13 6 2 34 33 61 70 28 36 52 66 55 66 3 0 25
-29 50 -64 47 -68 60 -78 85 -69 27 11 16 45 -35 115 -27 38 -50 72 -50 77 0
4 23 38 50 76 55 76 59 90 30 106 -23 12 -36 1 -89 -73 -19 -26 -38 -47 -41
-47 -4 0 -25 25 -46 56 -44 63 -62 76 -87 63z"/>
<path d="M7993 3023 c-10 -3 -13 -51 -13 -188 0 -153 2 -184 15 -189 35 -13
45 4 45 80 l0 74 95 0 95 0 0 -68 c0 -84 19 -111 54 -76 24 23 24 335 0 358
-12 12 -20 13 -35 6 -16 -9 -19 -22 -19 -80 l0 -70 -95 0 -95 0 0 74 c0 58 -3
75 -16 80 -9 3 -16 6 -17 5 -1 0 -8 -3 -14 -6z"/>
<path d="M8478 3020 c-144 -43 -175 -262 -49 -346 131 -86 311 7 311 161 0
130 -133 224 -262 185z m148 -93 c43 -40 55 -96 30 -149 -21 -45 -63 -68 -121
-68 -40 0 -52 5 -81 34 -30 30 -34 40 -34 85 0 84 44 130 128 131 34 0 49 -6
78 -33z"/>
<path d="M8893 3022 c-18 -11 -153 -340 -147 -356 8 -20 34 -28 49 -16 7 6 34
62 60 125 26 63 51 115 55 115 4 0 29 -52 55 -115 26 -63 53 -119 60 -125 15
-12 41 -4 49 15 5 15 -121 322 -144 349 -14 18 -20 19 -37 8z"/>
<path d="M9195 3011 c-149 -69 -153 -282 -8 -352 34 -17 57 -20 103 -17 98 7
165 70 177 165 18 155 -133 268 -272 204z m145 -66 c36 -19 60 -62 60 -110 0
-74 -51 -125 -125 -125 -99 0 -156 100 -110 190 29 56 113 77 175 45z"/>
<path d="M9538 3019 c-16 -9 -18 -29 -18 -183 0 -146 3 -176 16 -187 11 -9 20
-10 32 -2 14 9 17 33 20 162 l3 151 82 0 c100 0 128 17 91 54 -12 12 -37 16
-112 16 -53 0 -105 -5 -114 -11z"/>
<path d="M9823 3023 c-10 -3 -13 -51 -13 -188 0 -153 2 -184 15 -189 25 -9 37
1 135 127 l95 122 3 -117 c3 -127 12 -149 51 -128 20 10 21 19 21 180 0 140
-3 171 -16 184 -24 24 -40 10 -139 -118 -49 -64 -93 -116 -97 -116 -4 0 -8 54
-8 119 0 99 -3 120 -16 125 -9 3 -16 6 -17 5 -1 0 -8 -3 -14 -6z"/>
<path d="M10276 3020 c-60 -18 -100 -83 -89 -144 3 -15 18 -40 34 -56 l29 -29
-34 -57 c-34 -57 -37 -78 -10 -88 24 -9 38 2 79 69 33 55 44 65 67 65 27 0 28
-1 28 -60 0 -50 3 -61 21 -70 43 -24 49 -2 49 186 0 161 -1 174 -19 184 -23
12 -114 12 -155 0z m104 -115 l0 -55 -47 0 c-75 0 -107 46 -63 90 14 14 33 20
65 20 l45 0 0 -55z"/>
<path d="M8524 2516 c-3 -8 -4 -27 -2 -42 10 -85 183 -92 204 -7 14 53 -47 89
-66 39 -13 -35 -52 -35 -74 -1 -18 27 -53 33 -62 11z"/>
<path d="M676 2482 c-2 -4 3 -22 11 -40 18 -36 58 -62 98 -62 18 0 28 -7 35
-26 19 -48 14 -57 -21 -39 -16 9 -47 15 -67 13 l-37 -3 35 -38 c29 -32 44 -40
83 -44 32 -4 51 -12 58 -24 9 -17 6 -18 -35 -13 -25 4 -53 4 -62 0 -15 -6 -15
-8 2 -27 30 -34 74 -52 110 -46 29 5 37 1 54 -24 l21 -29 -43 0 c-24 0 -53 -6
-63 -14 -18 -13 -17 -15 15 -35 38 -23 99 -28 118 -9 9 9 17 6 37 -12 31 -30
32 -40 0 -40 -28 0 -75 -20 -75 -31 0 -13 56 -39 82 -39 13 0 34 7 46 16 24
16 72 12 72 -6 0 -5 -16 -16 -35 -25 -39 -19 -61 -42 -51 -53 4 -4 32 -7 61
-7 42 0 59 5 77 23 22 19 28 21 56 11 39 -13 40 -22 5 -45 -35 -22 -63 -56
-56 -68 3 -4 26 -6 52 -2 36 5 53 14 81 45 22 24 36 51 38 71 3 37 -23 97 -49
110 -16 9 -19 5 -25 -27 -5 -26 -2 -45 9 -65 19 -32 12 -34 -43 -12 -34 14
-38 19 -30 34 18 33 12 95 -11 116 -29 26 -41 4 -35 -63 l5 -53 -29 15 c-39
20 -44 31 -26 57 19 27 20 74 3 106 -13 22 -14 22 -29 5 -23 -26 -31 -64 -19
-97 l11 -27 -27 19 c-16 11 -36 29 -45 39 -17 19 -17 21 6 43 39 36 47 120 11
120 -19 0 -55 -62 -55 -96 l-1 -29 -34 40 -34 40 35 28 c28 24 34 35 34 68 0
21 -3 39 -8 39 -20 0 -52 -33 -62 -65 -13 -39 -23 -38 -45 5 -15 29 -15 30 24
54 40 25 64 77 44 97 -13 13 -72 -27 -85 -59 l-11 -27 -16 49 c-9 30 -12 51
-6 53 35 11 74 46 83 72 11 30 10 31 -16 31 -30 -1 -53 -15 -70 -45 -11 -20
-12 -19 -18 3 -5 16 -9 20 -14 12 -6 -9 -15 -7 -36 8 -33 23 -80 36 -88 24z"/>
<path d="M3456 2394 c-14 -14 -16 -44 -14 -216 3 -179 5 -202 21 -212 12 -8
22 -8 35 0 14 9 18 28 20 98 2 65 6 86 17 86 7 0 50 -43 94 -95 84 -97 111
-113 131 -76 5 11 10 22 10 25 0 3 -34 46 -75 96 l-76 90 66 81 c66 83 76 107
50 129 -24 20 -47 2 -119 -91 -38 -49 -74 -88 -80 -86 -6 2 -12 37 -14 83 -2
60 -7 82 -19 92 -22 16 -28 15 -47 -4z"/>
<path d="M3822 2398 c-19 -19 -17 -412 2 -427 9 -8 58 -11 151 -9 119 3 139 5
149 21 8 12 8 22 0 35 -9 14 -29 17 -123 20 l-111 3 0 49 0 50 63 0 c79 0 105
7 112 32 12 36 -12 48 -96 48 l-79 0 0 55 0 55 108 0 c107 0 132 7 132 36 0 7
-7 20 -16 28 -12 13 -41 16 -148 16 -89 0 -136 -4 -144 -12z"/>
<path d="M4300 2399 c-138 -55 -184 -246 -88 -364 43 -52 95 -75 168 -75 98 0
175 53 140 95 -16 20 -29 19 -84 -6 -127 -56 -242 76 -180 207 34 70 131 96
201 53 l35 -22 21 22 c27 27 17 46 -39 78 -42 25 -128 30 -174 12z"/>
<path d="M4602 2398 c-9 -9 -12 -70 -12 -213 0 -285 8 -288 171 -77 l114 147
5 -139 c4 -118 8 -141 22 -150 13 -8 23 -8 35 0 16 10 18 33 21 200 1 104 0
199 -3 210 -5 24 -27 36 -49 28 -8 -3 -63 -69 -123 -147 l-108 -141 -5 138
c-4 107 -8 139 -20 146 -20 13 -34 12 -48 -2z"/>
<path d="M5052 2398 c-9 -9 -12 -71 -12 -219 0 -183 2 -208 16 -213 9 -4 25
-4 35 -1 17 6 19 22 21 183 l3 177 97 3 98 3 2 -177 c3 -156 5 -178 21 -188
12 -8 22 -8 35 0 15 10 17 33 20 212 2 172 0 202 -14 216 -13 13 -41 16 -163
16 -101 0 -151 -4 -159 -12z"/>
<path d="M5436 2395 c-38 -38 -10 -65 66 -65 l58 0 0 -166 c0 -169 7 -204 38
-204 38 0 42 18 42 197 l0 172 61 3 c69 3 94 22 73 56 -10 15 -31 17 -167 20
-131 2 -158 0 -171 -13z"/>
<path d="M5832 2398 c-9 -9 -12 -71 -12 -219 0 -183 2 -208 16 -213 9 -4 24
-4 33 -1 9 3 63 68 121 145 58 76 108 139 113 139 4 1 7 -59 7 -132 0 -137 5
-157 42 -157 32 0 38 34 38 229 0 161 -2 192 -16 206 -9 9 -24 15 -33 13 -8
-2 -64 -66 -123 -143 -59 -77 -112 -141 -118 -143 -6 -2 -10 44 -10 130 0 132
-6 158 -35 158 -6 0 -16 -5 -23 -12z"/>
<path d="M6276 2394 c-13 -13 -16 -46 -16 -205 0 -196 6 -229 39 -229 31 0 40
22 43 105 2 65 6 80 19 80 8 0 50 -42 92 -92 76 -91 100 -106 125 -81 21 21
13 39 -58 124 -38 45 -70 88 -70 94 0 6 27 45 60 85 60 73 71 100 48 123 -23
23 -38 12 -114 -83 -42 -53 -82 -94 -88 -92 -6 2 -12 36 -14 82 -4 100 -26
130 -66 89z"/>
<path d="M6916 2388 c-8 -13 -49 -105 -91 -206 -62 -149 -74 -186 -65 -202 14
-27 46 -25 64 3 8 12 38 80 67 150 28 70 55 124 59 120 4 -4 28 -62 54 -128
26 -66 54 -130 62 -142 18 -28 50 -30 64 -3 9 16 -3 53 -65 202 -83 199 -98
228 -120 228 -8 0 -21 -10 -29 -22z"/>
<path d="M7186 2394 c-14 -13 -16 -47 -16 -213 0 -209 4 -227 47 -219 10 2 67
68 128 147 l110 143 5 -133 c5 -140 10 -159 39 -159 38 0 41 18 41 226 0 213
-4 234 -47 220 -10 -4 -67 -71 -128 -151 l-110 -145 -3 138 c-2 114 -5 139
-19 150 -22 16 -28 15 -47 -4z"/>
<path d="M7638 2399 c-16 -9 -18 -30 -18 -213 0 -156 3 -206 13 -214 8 -7 73
-13 163 -14 l149 -3 3 -37 c3 -39 24 -54 56 -42 14 5 16 18 14 78 -3 63 -6 72
-25 81 -23 10 -23 13 -23 180 0 171 -5 195 -36 195 -7 0 -20 -7 -28 -16 -13
-13 -16 -44 -16 -185 l0 -169 -95 0 -95 0 0 169 c0 141 -3 172 -16 185 -18 19
-23 19 -46 5z"/>
<path d="M8082 2398 c-9 -9 -12 -70 -12 -213 0 -143 3 -204 12 -213 8 -8 56
-12 149 -12 152 0 173 7 151 55 -11 24 -14 25 -122 25 l-110 0 0 50 0 50 63 0
c79 0 105 7 112 32 12 36 -12 48 -96 48 l-79 0 0 55 0 55 108 0 c107 0 132 7
132 36 0 7 -7 20 -16 28 -12 13 -41 16 -148 16 -89 0 -136 -4 -144 -12z"/>
<path d="M8452 2398 c-9 -9 -12 -70 -12 -213 0 -285 8 -288 171 -77 l114 147
5 -139 c4 -118 8 -141 23 -150 12 -8 22 -8 35 0 15 10 17 33 20 200 1 104 0
199 -3 210 -5 24 -27 36 -49 28 -8 -3 -63 -69 -123 -147 l-108 -141 -5 138
c-4 107 -8 139 -20 146 -20 13 -34 12 -48 -2z"/>
<path d="M8902 2398 c-9 -9 -12 -71 -12 -219 0 -183 2 -208 16 -213 9 -4 24
-4 33 -1 9 3 63 68 121 145 58 76 108 139 113 139 4 1 7 -59 7 -132 0 -137 5
-157 42 -157 32 0 38 34 38 229 0 161 -2 192 -16 206 -9 9 -24 15 -33 13 -8
-2 -64 -66 -123 -143 -59 -77 -112 -141 -118 -143 -6 -2 -10 44 -10 130 0 132
-6 158 -35 158 -6 0 -16 -5 -23 -12z"/>
<path d="M2230 2245 c0 -28 26 -85 38 -85 4 0 13 -4 21 -9 12 -8 10 -16 -13
-50 -33 -47 -46 -52 -46 -15 0 46 -47 115 -62 92 -17 -27 -8 -81 19 -116 l26
-35 -34 -28 c-43 -36 -50 -36 -43 -1 6 30 -18 102 -34 102 -12 0 -32 -46 -32
-73 1 -12 7 -33 15 -47 21 -36 19 -44 -16 -64 -35 -21 -45 -16 -30 12 15 29
14 65 -4 88 -15 19 -15 18 -36 -6 -20 -24 -21 -39 -7 -113 2 -14 -7 -23 -35
-34 -43 -18 -53 -13 -38 15 13 24 14 72 2 90 -6 10 -15 5 -35 -19 -23 -27 -27
-40 -24 -76 2 -24 -1 -45 -7 -47 -5 -3 -3 -5 6 -5 9 -1 22 -13 30 -28 20 -38
109 -69 132 -47 10 10 -32 64 -59 76 -32 15 -30 22 11 37 33 12 38 11 67 -14
27 -23 39 -26 76 -22 23 2 46 7 49 11 10 9 -20 38 -55 53 -28 12 -32 17 -22
28 16 19 32 19 67 -1 32 -19 86 -14 118 10 18 13 17 14 -13 30 -17 9 -43 16
-58 16 l-28 0 29 30 c22 23 32 27 46 20 27 -15 78 -12 110 7 50 30 30 53 -49
53 l-33 0 15 29 c14 26 19 28 59 24 39 -5 48 -1 80 27 52 46 48 54 -25 47 -49
-4 -65 -10 -80 -29 l-18 -23 0 28 c0 18 -11 39 -29 58 -36 36 -51 37 -51 4z"/>
<path d="M1481 1796 c81 -32 121 -57 115 -73 -5 -13 -4 -13 8 -4 11 9 21 6 47
-16 l34 -27 -29 31 -28 31 43 23 c24 12 62 28 84 36 40 13 40 13 5 8 -19 -3
-59 -17 -89 -32 l-54 -28 -56 27 c-31 15 -69 30 -86 33 -27 5 -27 4 6 -9z"/>
<path d="M1559 1693 c-13 -16 -12 -17 4 -4 9 7 17 15 17 17 0 8 -8 3 -21 -13z"/>
</g>
</svg>
