<svg width="37" height="26" viewBox="0 0 37 26" fill="none" xmlns="http://www.w3.org/2000/svg">
<path d="M36.1883 4.12614C37 6.96709 37 13.0548 37 13.0548C37 13.0548 37 19.075 36.1883 21.9835C35.7824 23.6069 34.4973 24.8245 32.9415 25.2303C30.0329 25.9744 18.5338 25.9744 18.5338 25.9744C18.5338 25.9744 6.96709 25.9744 4.0585 25.2303C2.50274 24.8245 1.21755 23.6069 0.8117 21.9835C0 19.075 0 13.0548 0 13.0548C0 13.0548 0 6.96709 0.8117 4.12614C1.21755 2.50274 2.50274 1.21755 4.0585 0.8117C6.96709 0 18.5338 0 18.5338 0C18.5338 0 30.0329 0 32.9415 0.8117C34.4973 1.21755 35.7824 2.50274 36.1883 4.12614ZM14.7459 18.5338L24.351 13.0548L14.7459 7.57587V18.5338Z" fill="white"/>
<a href="https://www.youtube.com/">
<rect fill="black" fill-opacity="0" x="0.375" y="-2.55" width="38.25" height="39.1"/>
</a>
</svg>
