<svg width="33" height="33" viewBox="0 0 33 33" fill="none" xmlns="http://www.w3.org/2000/svg">
<path d="M33 16.5C33 24.75 26.9456 31.6028 19.0282 32.8004V21.2903H22.8871L23.619 16.5H19.0282V13.4395C19.0282 12.1089 19.6935 10.8448 21.756 10.8448H23.8185V6.78629C23.8185 6.78629 21.9556 6.45363 20.0927 6.45363C16.3669 6.45363 13.9052 8.78226 13.9052 12.9073V16.5H9.71371V21.2903H13.9052V32.8004C5.9879 31.6028 0 24.75 0 16.5C0 7.38508 7.38508 0 16.5 0C25.6149 0 33 7.38508 33 16.5Z" fill="white"/>
<a href="https://www.facebook.com/">
<rect fill="black" fill-opacity="0" y="-2.55" width="34" height="39.1"/>
</a>
</svg>
