<svg width="120" height="120" viewBox="0 0 120 120" fill="none" xmlns="http://www.w3.org/2000/svg">
<path d="M59.6484 4.45312C63.3984 4.45312 67.0703 4.82422 70.6641 5.56641C74.2578 6.30859 77.7344 7.38281 81.0938 8.78906C84.375 10.1953 87.4805 11.8945 90.4102 13.8867C93.3398 15.8789 96.0938 18.125 98.6719 20.625C101.172 23.2031 103.418 25.957 105.41 28.8867C107.402 31.8164 109.102 34.9219 110.508 38.2031C111.914 41.5625 112.988 45.0391 113.73 48.6328C114.473 52.2266 114.844 55.8984 114.844 59.6484C114.844 63.3984 114.473 67.0703 113.73 70.6641C112.988 74.2578 111.914 77.7344 110.508 81.0938C109.102 84.375 107.402 87.4805 105.41 90.4102C103.418 93.3398 101.172 96.0938 98.6719 98.6719C96.0938 101.172 93.3398 103.418 90.4102 105.41C87.4805 107.402 84.375 109.102 81.0938 110.508C77.7344 111.914 74.2578 112.988 70.6641 113.73C67.0703 114.473 63.3984 114.844 59.6484 114.844C55.8984 114.844 52.2266 114.473 48.6328 113.73C45.0391 112.988 41.5625 111.914 38.2031 110.508C34.9219 109.102 31.8164 107.402 28.8867 105.41C25.957 103.418 23.2031 101.172 20.625 98.6719C18.125 96.0938 15.8789 93.3398 13.8867 90.4102C11.8945 87.4805 10.1953 84.375 8.78906 81.0938C7.38281 77.7344 6.30859 74.2578 5.56641 70.6641C4.82422 67.0703 4.45312 63.3984 4.45312 59.6484C4.45312 55.8984 4.82422 52.2266 5.56641 48.6328C6.30859 45.0391 7.38281 41.5625 8.78906 38.2031C10.1953 34.9219 11.8945 31.8164 13.8867 28.8867C15.8789 25.957 18.125 23.2031 20.625 20.625C23.2031 18.125 25.957 15.8789 28.8867 13.8867C31.8164 11.8945 34.9219 10.1953 38.2031 8.78906C41.5625 7.38281 45.0391 6.30859 48.6328 5.56641C52.2266 4.82422 55.8984 4.45312 59.6484 4.45312ZM59.6484 0C51.4453 0 43.7109 1.5625 36.4453 4.6875C29.1797 7.8125 22.8516 12.0703 17.4609 17.4609C12.0703 22.8516 7.8125 29.1797 4.6875 36.4453C1.5625 43.7109 0 51.4453 0 59.6484C0 67.8516 1.5625 75.5859 4.6875 82.8516C7.8125 90.1172 12.0703 96.4453 17.4609 101.836C22.8516 107.227 29.1797 111.484 36.4453 114.609C43.7109 117.734 51.4453 119.297 59.6484 119.297C67.8516 119.297 75.5859 117.734 82.8516 114.609C90.1172 111.484 96.4453 107.227 101.836 101.836C107.227 96.4453 111.484 90.1172 114.609 82.8516C117.734 75.5859 119.297 67.8516 119.297 59.6484C119.297 51.4453 117.734 43.7109 114.609 36.4453C111.484 29.1797 107.227 22.8516 101.836 17.4609C96.4453 12.0703 90.1172 7.8125 82.8516 4.6875C75.5859 1.5625 67.8516 0 59.6484 0ZM46.9922 86.25C46.8359 86.25 46.6797 86.2305 46.5234 86.1914C46.3672 86.1523 46.2109 86.0938 46.0547 86.0156C45.6641 85.7812 45.3516 85.4883 45.1172 85.1367C44.8828 84.7852 44.7656 84.4141 44.7656 84.0234V35.2734C44.7656 34.8828 44.8828 34.5117 45.1172 34.1602C45.3516 33.8086 45.6641 33.5156 46.0547 33.2812C46.3672 33.125 46.7383 33.0469 47.168 33.0469C47.5977 33.0469 48.0078 33.1641 48.3984 33.3984L82.5 57.7734C82.8125 58.0078 83.0469 58.2812 83.2031 58.5938C83.3594 58.9062 83.4375 59.2578 83.4375 59.6484C83.4375 60.0391 83.3594 60.3906 83.2031 60.7031C83.0469 61.0156 82.8125 61.25 82.5 61.4062L48.3984 85.7812C48.1641 85.9375 47.9297 86.0547 47.6953 86.1328C47.4609 86.2109 47.2266 86.25 46.9922 86.25ZM49.3359 39.6094V79.6875L77.3438 59.6484L49.3359 39.6094Z" fill="white"/>
</svg>
