<svg width="30" height="30" viewBox="0 0 30 30" fill="none" xmlns="http://www.w3.org/2000/svg">
<path d="M27.8571 0C28.9955 0 30 1.00446 30 2.20982V27.8571C30 29.0625 28.9955 30 27.8571 30H2.07589C0.9375 30 0 29.0625 0 27.8571V2.20982C0 1.00446 0.9375 0 2.07589 0H27.8571ZM9.04018 25.7143V11.4509H4.62054V25.7143H9.04018ZM6.83036 9.44196C8.23661 9.44196 9.375 8.30357 9.375 6.89732C9.375 5.49107 8.23661 4.28571 6.83036 4.28571C5.35714 4.28571 4.21875 5.49107 4.21875 6.89732C4.21875 8.30357 5.35714 9.44196 6.83036 9.44196ZM25.7143 25.7143V17.8795C25.7143 14.0625 24.8437 11.0491 20.3571 11.0491C18.2143 11.0491 16.7411 12.2545 16.1384 13.3929H16.0714V11.4509H11.8527V25.7143H16.2723V18.683C16.2723 16.808 16.6071 15 18.9509 15C21.2277 15 21.2277 17.1429 21.2277 18.75V25.7143H25.7143Z" fill="white"/>
<a href="https://www.linkedin.com/">
<rect fill="black" fill-opacity="0" x="0.125" y="-2.55" width="29.75" height="39.1"/>
</a>
</svg>
