<svg width="23" height="23" viewBox="0 0 23 23" fill="none" xmlns="http://www.w3.org/2000/svg">
<path d="M17.0717 15.6453C17.7403 14.8133 18.2529 13.8884 18.6095 12.8706C18.9661 11.8529 19.1444 10.8091 19.1444 9.73934C19.1444 8.41699 18.8918 7.17636 18.3866 6.01744C17.8815 4.85853 17.1943 3.84448 16.3251 2.97529C15.4559 2.1061 14.4419 1.42636 13.2829 0.936047C12.124 0.430879 10.8834 0.178295 9.56105 0.178295C8.25355 0.178295 7.02035 0.430879 5.86143 0.936047C4.70252 1.42636 3.68847 2.1061 2.81928 2.97529C1.9501 3.84448 1.27035 4.85853 0.780039 6.01744C0.274871 7.17636 0.0222868 8.41699 0.0222868 9.73934C0.0222868 11.0468 0.274871 12.28 0.780039 13.439C1.28521 14.5979 1.96867 15.6119 2.83043 16.4811C3.69218 17.3503 4.70252 18.0375 5.86143 18.5426C7.02035 19.0478 8.25355 19.3004 9.56105 19.3004C10.616 19.3004 11.6523 19.1221 12.6701 18.7655C13.6878 18.4089 14.6202 17.8963 15.4671 17.2277L21.2171 23L22.844 21.3508L17.0717 15.6453ZM9.56105 17.0271C8.56557 17.0271 7.62952 16.834 6.75291 16.4477C5.87629 16.0762 5.11111 15.5599 4.45736 14.8987C3.80362 14.2376 3.29102 13.4687 2.91957 12.5921C2.53327 11.7154 2.34012 10.7794 2.34012 9.78391C2.34012 8.78844 2.53327 7.85239 2.91957 6.97578C3.29102 6.09916 3.80362 5.33026 4.45736 4.66909C5.11111 4.00791 5.87629 3.4916 6.75291 3.12016C7.62952 2.73385 8.56557 2.5407 9.56105 2.5407C10.5565 2.5407 11.4926 2.73385 12.3692 3.12016C13.2458 3.4916 14.011 4.00791 14.6647 4.66909C15.3185 5.33026 15.8385 6.09916 16.2248 6.97578C16.6111 7.85239 16.8043 8.78844 16.8043 9.78391C16.8043 10.7794 16.6111 11.7154 16.2248 12.5921C15.8385 13.4687 15.3185 14.2376 14.6647 14.8987C14.011 15.5599 13.2458 16.0762 12.3692 16.4477C11.4926 16.834 10.5565 17.0271 9.56105 17.0271Z" fill="#292929"/>
</svg>
