<svg width="224" height="86" viewBox="0 0 224 86" fill="none" xmlns="http://www.w3.org/2000/svg">
<g clip-path="url(#clip0_2_546)">
<path d="M0 0H85.7658V85.7658H0V0Z" fill="#36348E"/>
<path d="M119.063 56.2018C121.182 56.2018 122.897 55.5964 124.007 54.5874C125.016 53.5784 125.622 51.964 125.622 49.9459V41.1676H121.787V49.9459C121.787 50.955 121.586 51.8631 121.081 52.3676C120.677 52.8721 119.971 53.1748 119.063 53.1748C118.054 53.1748 117.449 52.8721 117.045 52.3676C116.541 51.8631 116.339 51.0559 116.339 49.9459V41.1676H112.404V49.9459C112.404 51.964 113.009 53.5784 114.119 54.5874C115.128 55.5964 116.843 56.2018 119.063 56.2018ZM132.18 55.8991V49.9459C132.18 49.3405 132.18 48.9369 132.483 48.5333C132.584 48.1297 132.886 47.827 133.189 47.6252C133.502 47.4719 133.85 47.4024 134.198 47.4234C134.703 47.4234 135.005 47.5243 135.308 47.827C135.611 48.1297 135.813 48.7351 135.813 49.4414V55.8991H139.647V48.4324C139.647 47.6252 139.445 46.818 139.142 46.3135C138.84 45.7081 138.335 45.3045 137.73 44.9009C137.225 44.5982 136.519 44.4973 135.712 44.4973C135.005 44.4973 134.4 44.5982 133.795 44.9009C132.976 45.2973 132.33 45.9791 131.978 46.818V46.9189L131.777 44.6991H128.346V55.8991H132.18ZM144.288 43.3874C144.995 43.3874 145.499 43.2865 145.903 42.9838C146.205 42.6811 146.407 42.1766 146.407 41.5712C146.407 40.9658 146.205 40.5622 145.903 40.1586C145.499 39.8559 144.894 39.755 144.187 39.755C143.38 39.755 142.876 39.8559 142.472 40.1586C142.068 40.4613 141.968 40.9658 141.968 41.5712C141.968 42.1766 142.169 42.6811 142.472 42.9838C142.775 43.2865 143.481 43.3874 144.187 43.3874H144.288ZM146.104 55.8991V44.8H142.27V55.8991H146.104ZM155.993 55.8991L160.029 44.8H156.094L153.773 53.2757L151.452 44.6991H147.416L151.452 55.8991H155.993ZM166.89 56.2018C167.697 56.2018 168.404 56.1009 169.11 55.7982C169.816 55.5964 170.422 55.2937 170.926 54.7892C171.431 54.3856 171.834 53.7802 172.036 53.1748L169.009 52.1658C168.807 52.5694 168.605 52.8721 168.202 53.1748C167.798 53.4775 167.495 53.4775 166.89 53.4775C166.386 53.4775 165.881 53.3766 165.578 53.1748C165.206 52.936 164.922 52.5815 164.771 52.1658L164.569 51.3586H172.137L172.238 50.8541V50.6523V49.845C172.238 48.836 172.036 47.827 171.632 47.0198C171.229 46.2126 170.623 45.6072 169.715 45.2036C168.908 44.6991 167.899 44.4973 166.688 44.4973C165.578 44.4973 164.569 44.6991 163.661 45.2036C162.753 45.7081 162.047 46.3135 161.643 47.2216C161.038 48.0288 160.836 49.1387 160.836 50.2487C160.836 51.5604 161.038 52.5694 161.542 53.4775C162.047 54.3856 162.753 54.991 163.661 55.4955C164.569 56 165.679 56.2018 166.89 56.2018ZM168.605 49.2396H164.569V48.7351L164.67 48.5333C164.872 48.0288 165.175 47.7261 165.477 47.5243C165.78 47.3225 166.184 47.1207 166.688 47.1207C167.395 47.1207 167.899 47.4234 168.202 47.9279C168.404 48.2306 168.605 48.6342 168.605 49.2396ZM178.191 55.8991V50.2487C178.191 49.7441 178.292 49.2396 178.595 48.836C178.796 48.4324 179.099 48.1297 179.503 47.9279C179.906 47.7261 180.31 47.7261 180.713 47.7261H181.622C181.823 47.7261 182.025 47.7261 182.126 47.9279L182.53 44.6991L182.025 44.5982L181.319 44.4973C180.512 44.4973 179.805 44.6991 179.2 45.2036C178.595 45.6072 178.191 46.2126 177.888 47.2216L177.787 44.6991H174.357V55.8991H178.191ZM188.786 56.2018C189.996 56.2018 190.904 56 191.712 55.6973C192.519 55.2937 193.023 54.8901 193.427 54.2847C193.831 53.6793 194.032 53.0739 194.032 52.2667C194.032 51.5604 193.831 50.8541 193.326 50.2487C192.721 49.7441 191.913 49.3405 190.804 49.2396L188.786 48.7351C188.281 48.7351 187.877 48.5333 187.777 48.4324C187.474 48.2306 187.373 48.0288 187.373 47.9279L187.575 47.4234L188.18 47.1207H189.088C189.663 47.1328 190.23 47.2647 190.751 47.5079C191.272 47.7511 191.737 48.1004 192.115 48.5333L193.932 46.5153C193.408 45.8379 192.71 45.3149 191.913 45.0018C191.005 44.6991 189.996 44.4973 188.886 44.4973C187.676 44.4973 186.667 44.6991 185.859 45.0018C185.153 45.4054 184.548 45.809 184.144 46.4144C183.741 47.0198 183.64 47.5243 183.64 48.1297C183.64 49.1387 183.942 49.845 184.548 50.3496C185.416 51.0586 186.464 51.5127 187.575 51.6613L189.088 51.964C189.492 51.964 189.795 52.1658 189.996 52.2667C190.198 52.3676 190.198 52.5694 190.198 52.7712C190.198 53.0739 190.097 53.2757 189.795 53.3766C189.492 53.5784 189.088 53.5784 188.584 53.5784C187.911 53.5944 187.244 53.4574 186.632 53.1777C186.02 52.8981 185.48 52.483 185.052 51.964L183.236 53.982C183.9 54.709 184.731 55.2632 185.658 55.5964C186.667 56 187.676 56.2018 188.685 56.2018H188.786ZM197.867 43.3874C198.674 43.3874 199.279 43.2865 199.582 42.9838C199.986 42.6811 200.187 42.1766 200.187 41.5712C200.187 40.9658 199.986 40.5622 199.582 40.1586C199.279 39.8559 198.674 39.755 197.968 39.755C197.16 39.755 196.555 39.8559 196.252 40.1586C195.95 40.4613 195.748 40.9658 195.748 41.5712C195.748 42.1766 195.849 42.6811 196.252 42.9838C196.656 43.2865 197.16 43.3874 197.968 43.3874H197.867ZM199.885 55.8991V44.8H196.05V55.8991H199.885ZM207.553 56.2018L209.369 55.8991C209.868 55.7706 210.345 55.5665 210.782 55.2937L210.378 52.973L209.672 53.2757L208.663 53.4775C208.259 53.4775 207.856 53.3766 207.654 53.0739C207.351 52.8721 207.25 52.4685 207.25 51.964V47.4234H210.58V44.6991H207.25V41.1676L203.416 42.1766V44.6991H201.398V47.4234H203.416V52.5694C203.416 53.3766 203.618 53.982 203.82 54.5874H203.921C204.324 55.1928 204.728 55.5964 205.434 55.7982C206.111 56.0585 206.828 56.1952 207.553 56.2018ZM214.011 60.7423C215.02 60.7423 215.726 60.6414 216.432 60.3387C217.139 60.036 217.744 59.4306 218.148 58.7243C218.551 58.018 219.157 57.1099 219.56 55.8991L223.596 44.8H219.964L218.249 51.0559L217.643 53.4775L217.038 51.1568L215.322 44.6991H211.085L214.515 53.1748L215.827 56.2018L215.524 56.9081C215.323 57.3117 215.121 57.6144 214.818 57.7153C214.616 57.9171 214.213 57.9171 213.809 57.9171H212.598L211.791 57.4126L210.984 60.036L212.396 60.5405L214.112 60.7423H214.011Z" fill="white"/>
<path d="M119.063 56.2018C121.182 56.2018 122.897 55.5964 124.007 54.5874C125.016 53.5784 125.622 51.964 125.622 49.946V41.1676H121.787V49.946C121.787 50.955 121.586 51.8631 121.081 52.3676C120.677 52.8721 119.971 53.1748 119.063 53.1748C118.054 53.1748 117.449 52.8721 117.045 52.3676C116.541 51.8631 116.339 51.0559 116.339 49.946V41.1676H112.404V49.946C112.404 51.964 113.009 53.5784 114.119 54.5874C115.128 55.5964 116.843 56.2018 119.063 56.2018ZM132.18 55.8991V49.946C132.18 49.3406 132.18 48.9369 132.483 48.5333C132.584 48.1297 132.886 47.827 133.189 47.6252C133.502 47.4719 133.85 47.4024 134.198 47.4234C134.703 47.4234 135.005 47.5243 135.308 47.827C135.611 48.1297 135.813 48.7351 135.813 49.4415V55.8991H139.647V48.4324C139.647 47.6252 139.445 46.818 139.142 46.3135C138.84 45.7081 138.335 45.3045 137.73 44.9009C137.225 44.5982 136.519 44.4973 135.712 44.4973C135.005 44.4973 134.4 44.5982 133.795 44.9009C132.976 45.2973 132.33 45.9791 131.978 46.818V46.9189L131.777 44.6991H128.346V55.8991H132.18ZM144.288 43.3874C144.995 43.3874 145.499 43.2865 145.903 42.9838C146.205 42.6811 146.407 42.1766 146.407 41.5712C146.407 40.9658 146.205 40.5622 145.903 40.1586C145.499 39.8559 144.894 39.755 144.187 39.755C143.38 39.755 142.876 39.8559 142.472 40.1586C142.068 40.4613 141.968 40.9658 141.968 41.5712C141.968 42.1766 142.169 42.6811 142.472 42.9838C142.775 43.2865 143.481 43.3874 144.187 43.3874H144.288ZM146.104 55.8991V44.8H142.27V55.8991H146.104ZM155.993 55.8991L160.029 44.8H156.094L153.773 53.2757L151.452 44.6991H147.416L151.452 55.8991H155.993ZM166.89 56.2018C167.697 56.2018 168.404 56.1009 169.11 55.7982C169.816 55.5964 170.422 55.2937 170.926 54.7892C171.431 54.3856 171.834 53.7802 172.036 53.1748L169.009 52.1658C168.807 52.5694 168.605 52.8721 168.202 53.1748C167.798 53.4775 167.495 53.4775 166.89 53.4775C166.386 53.4775 165.881 53.3766 165.578 53.1748C165.206 52.936 164.922 52.5815 164.771 52.1658L164.569 51.3586H172.137L172.238 50.8541V50.6523V49.8451C172.238 48.8361 172.036 47.827 171.632 47.0198C171.229 46.2126 170.623 45.6072 169.715 45.2036C168.908 44.6991 167.899 44.4973 166.688 44.4973C165.578 44.4973 164.569 44.6991 163.661 45.2036C162.753 45.7081 162.047 46.3135 161.643 47.2216C161.038 48.0288 160.836 49.1388 160.836 50.2487C160.836 51.5604 161.038 52.5694 161.542 53.4775C162.047 54.3856 162.753 54.991 163.661 55.4955C164.569 56 165.679 56.2018 166.89 56.2018ZM168.605 49.2397H164.569V48.7351L164.67 48.5333C164.872 48.0288 165.175 47.7261 165.477 47.5243C165.78 47.3225 166.184 47.1207 166.688 47.1207C167.395 47.1207 167.899 47.4234 168.202 47.9279C168.404 48.2306 168.605 48.6342 168.605 49.2397ZM178.191 55.8991V50.2487C178.191 49.7442 178.292 49.2397 178.595 48.8361C178.796 48.4324 179.099 48.1297 179.503 47.9279C179.906 47.7261 180.31 47.7261 180.713 47.7261H181.622C181.823 47.7261 182.025 47.7261 182.126 47.9279L182.53 44.6991L182.025 44.5982L181.319 44.4973C180.512 44.4973 179.805 44.6991 179.2 45.2036C178.595 45.6072 178.191 46.2126 177.888 47.2216L177.787 44.6991H174.357V55.8991H178.191ZM188.786 56.2018C189.996 56.2018 190.904 56 191.712 55.6973C192.519 55.2937 193.023 54.8901 193.427 54.2847C193.831 53.6793 194.032 53.0739 194.032 52.2667C194.032 51.5604 193.831 50.8541 193.326 50.2487C192.721 49.7442 191.913 49.3406 190.804 49.2397L188.786 48.7351C188.281 48.7351 187.877 48.5333 187.777 48.4324C187.474 48.2306 187.373 48.0288 187.373 47.9279L187.575 47.4234L188.18 47.1207H189.088C189.663 47.1328 190.23 47.2647 190.751 47.5079C191.272 47.7512 191.737 48.1004 192.115 48.5333L193.932 46.5153C193.408 45.8379 192.71 45.3149 191.913 45.0018C191.005 44.6991 189.996 44.4973 188.886 44.4973C187.676 44.4973 186.667 44.6991 185.859 45.0018C185.153 45.4054 184.548 45.809 184.144 46.4144C183.741 47.0198 183.64 47.5243 183.64 48.1297C183.64 49.1388 183.942 49.8451 184.548 50.3496C185.416 51.0586 186.464 51.5127 187.575 51.6613L189.088 51.964C189.492 51.964 189.795 52.1658 189.996 52.2667C190.198 52.3676 190.198 52.5694 190.198 52.7712C190.198 53.0739 190.097 53.2757 189.795 53.3766C189.492 53.5784 189.088 53.5784 188.584 53.5784C187.911 53.5944 187.244 53.4574 186.632 53.1778C186.02 52.8981 185.48 52.483 185.052 51.964L183.236 53.982C183.9 54.709 184.731 55.2632 185.658 55.5964C186.667 56 187.676 56.2018 188.685 56.2018H188.786ZM197.867 43.3874C198.674 43.3874 199.279 43.2865 199.582 42.9838C199.986 42.6811 200.187 42.1766 200.187 41.5712C200.187 40.9658 199.986 40.5622 199.582 40.1586C199.279 39.8559 198.674 39.755 197.968 39.755C197.16 39.755 196.555 39.8559 196.252 40.1586C195.95 40.4613 195.748 40.9658 195.748 41.5712C195.748 42.1766 195.849 42.6811 196.252 42.9838C196.656 43.2865 197.16 43.3874 197.968 43.3874H197.867ZM199.885 55.8991V44.8H196.05V55.8991H199.885ZM207.553 56.2018L209.369 55.8991C209.868 55.7706 210.345 55.5665 210.782 55.2937L210.378 52.973L209.672 53.2757L208.663 53.4775C208.259 53.4775 207.856 53.3766 207.654 53.0739C207.351 52.8721 207.25 52.4685 207.25 51.964V47.4234H210.58V44.6991H207.25V41.1676L203.416 42.1766V44.6991H201.398V47.4234H203.416V52.5694C203.416 53.3766 203.618 53.982 203.82 54.5874H203.921C204.324 55.1928 204.728 55.5964 205.434 55.7982C206.111 56.0585 206.828 56.1952 207.553 56.2018ZM214.011 60.7424C215.02 60.7424 215.726 60.6415 216.432 60.3388C217.139 60.0361 217.744 59.4306 218.148 58.7243C218.551 58.018 219.157 57.1099 219.56 55.8991L223.596 44.8H219.964L218.249 51.0559L217.643 53.4775L217.038 51.1568L215.322 44.6991H211.085L214.515 53.1748L215.827 56.2018L215.524 56.9081C215.323 57.3117 215.121 57.6144 214.818 57.7153C214.616 57.9171 214.213 57.9171 213.809 57.9171H212.598L211.791 57.4126L210.984 60.0361L212.396 60.5406L214.112 60.7424H214.011ZM119.063 34.4072V33.2973H113.715V29.564H118.659V28.3532H113.614V24.7207H118.962V23.5099H112.404V34.4072H119.063ZM123.906 34.609C124.459 34.6198 125.009 34.5168 125.521 34.3063C126.025 34.1045 126.429 33.8018 126.732 33.3982C126.933 32.9946 127.135 32.591 127.135 32.1874C127.135 31.582 126.933 31.1784 126.53 30.7748C126.227 30.3712 125.622 30.1694 124.915 29.9676L123.704 29.6649C123.2 29.564 122.897 29.3622 122.695 29.1604C122.578 29.0821 122.48 28.9775 122.41 28.8549C122.34 28.7323 122.3 28.5951 122.292 28.4541C122.292 28.1514 122.494 27.8487 122.796 27.546C123.099 27.3442 123.503 27.2433 124.007 27.2433C124.411 27.2433 124.713 27.2433 125.016 27.4451C125.218 27.4451 125.319 27.6469 125.521 27.8487L125.823 28.4541L126.933 28.0505C126.732 27.546 126.429 27.0415 125.924 26.7387C125.373 26.3244 124.697 26.1108 124.007 26.1333L122.494 26.436C122.09 26.6378 121.686 26.9406 121.485 27.3442C121.283 27.7478 121.081 28.0505 121.081 28.555C121.081 29.0595 121.182 29.564 121.586 29.9676C121.888 30.2703 122.494 30.573 123.2 30.7748L124.613 31.0775C125.016 31.0775 125.319 31.2793 125.521 31.4811C125.722 31.6829 125.823 31.9856 125.823 32.1874C125.823 32.591 125.622 32.8937 125.319 33.1964C124.915 33.3982 124.512 33.4991 123.906 33.4991C123.402 33.4991 122.897 33.3982 122.595 33.1964C122.292 32.9946 122.09 32.591 121.989 32.1874L120.778 32.4901C120.98 33.1964 121.283 33.7009 121.787 34.1045C122.393 34.4072 123.099 34.609 123.906 34.609ZM131.777 34.609C132.089 34.5943 132.396 34.526 132.685 34.4072L132.382 33.2973C132.214 33.3009 132.046 33.3009 131.877 33.2973H131.373L130.969 32.8937L130.768 32.0865V27.3442H132.483V26.3351H130.768V24.3171H129.557V26.3351H128.346V27.3442H129.557V32.3892C129.557 32.7928 129.557 33.1964 129.759 33.3982L129.859 33.6L130.667 34.3063C131.07 34.5081 131.373 34.5081 131.676 34.5081L131.777 34.609ZM137.023 34.609C137.533 34.631 138.037 34.4981 138.469 34.2279C138.901 33.9578 139.242 33.5629 139.445 33.0955H139.546V34.3063H140.858V26.2342H139.546V30.9766C139.546 31.4811 139.546 31.9856 139.243 32.2883L138.436 32.9946C138.133 33.1964 137.73 33.1964 137.427 33.1964C136.922 33.1964 136.519 33.0955 136.216 32.6919C135.873 32.3033 135.692 31.7975 135.712 31.2793V26.2342H134.4V31.2793C134.4 32.0865 134.501 32.591 134.804 33.0955C135.005 33.4991 135.308 33.9027 135.712 34.1045C136.115 34.3063 136.519 34.4072 137.023 34.4072V34.609ZM146.104 34.609C146.71 34.609 147.113 34.5081 147.416 34.3063C147.917 34.0595 148.338 33.6744 148.627 33.1964H148.728V34.3063H149.939V23.5099H148.728V27.546H148.627L148.223 27.0415C147.996 26.7268 147.69 26.4774 147.336 26.318C146.982 26.1587 146.592 26.095 146.205 26.1333C145.556 26.1266 144.921 26.3155 144.381 26.6754C143.841 27.0354 143.422 27.5498 143.178 28.1514C142.876 28.7568 142.775 29.4631 142.775 30.3712C142.775 31.2793 142.876 31.9856 143.178 32.591C143.481 33.2973 143.885 33.7009 144.389 34.1045C144.894 34.4072 145.499 34.609 146.205 34.609H146.104ZM146.407 33.4991C145.936 33.522 145.472 33.3792 145.095 33.0955C144.692 32.7928 144.389 32.3892 144.288 31.8847C143.899 30.8783 143.899 29.7631 144.288 28.7568C144.389 28.3532 144.692 27.9496 144.995 27.7478C145.383 27.4043 145.889 27.2237 146.407 27.2433C146.912 27.2433 147.315 27.4451 147.618 27.6469C148.022 27.9496 148.223 28.2523 148.425 28.6559C148.627 29.1604 148.728 29.6649 148.728 30.3712C148.728 30.9766 148.627 31.4811 148.425 31.9856C148.223 32.4901 148.022 32.7928 147.618 32.9946C147.282 33.2929 146.856 33.4705 146.407 33.4991ZM153.067 24.9225L153.672 24.6198C153.874 24.5189 153.975 24.3171 153.975 24.0144L153.672 23.409C153.501 23.2707 153.286 23.199 153.067 23.2072C152.764 23.2072 152.562 23.2072 152.461 23.409L152.159 24.0144C152.159 24.3171 152.159 24.5189 152.461 24.6198C152.562 24.8216 152.764 24.9225 153.067 24.9225ZM153.672 34.4072V26.3351H152.36V34.4072H153.672ZM158.313 34.609C158.818 34.609 159.323 34.609 159.524 34.4072C160.029 34.2153 160.455 33.8602 160.735 33.3982H160.836V34.4072H162.047V29.0595C162.047 28.4541 162.047 27.8487 161.744 27.546C161.542 27.1424 161.341 26.8396 160.937 26.6378L159.928 26.2342H157.809L156.699 26.9406C156.396 27.2433 155.993 27.546 155.791 28.0505L157.002 28.4541L157.708 27.6469C158.011 27.4451 158.515 27.2433 159.121 27.2433C159.726 27.2433 160.13 27.4451 160.432 27.7478C160.735 27.9496 160.836 28.3532 160.836 28.9586C160.836 29.1604 160.836 29.2613 160.634 29.3622L159.928 29.564C159.153 29.6508 158.379 29.7517 157.607 29.8667C157.254 29.9551 156.915 30.0909 156.598 30.2703C156.307 30.4428 156.064 30.6857 155.892 30.9766C155.685 31.3094 155.58 31.695 155.589 32.0865C155.589 32.6919 155.69 33.0955 155.993 33.4991C156.195 33.8018 156.497 34.1045 157.002 34.3063C157.405 34.5081 157.809 34.609 158.313 34.609ZM158.515 33.4991C158.011 33.4991 157.607 33.3982 157.304 33.1964C157.002 32.8937 156.8 32.591 156.8 32.1874C156.8 31.8847 156.901 31.582 157.103 31.3802L157.809 30.9766L158.717 30.7748C159.421 30.6273 160.127 30.4927 160.836 30.3712V31.3802C160.836 31.7838 160.836 32.1874 160.533 32.3892C160.375 32.7171 160.131 32.996 159.827 33.1964C159.423 33.3982 159.02 33.4991 158.515 33.4991ZM165.578 34.5081V29.2613C165.581 28.9252 165.676 28.5963 165.854 28.3113C166.033 28.0262 166.286 27.7962 166.587 27.6469C166.991 27.4451 167.294 27.3442 167.697 27.3442C167.965 27.3093 168.237 27.3093 168.504 27.3442V26.2342C168.269 26.2163 168.033 26.2163 167.798 26.2342C167.294 26.2342 166.89 26.3351 166.486 26.6378C166.114 26.8766 165.83 27.2311 165.679 27.6469V26.2342H164.368V34.4072L165.578 34.5081Z" fill="white"/>
<path d="M119.063 34.4072V33.2973H113.715V29.564H118.659V28.3532H113.614V24.7207H118.962V23.5099H112.404V34.4072H119.063ZM123.906 34.609C124.459 34.6198 125.009 34.5168 125.521 34.3063C126.025 34.1045 126.429 33.8018 126.731 33.3982C126.933 32.9946 127.135 32.591 127.135 32.1874C127.135 31.582 126.933 31.1784 126.53 30.7748C126.227 30.3712 125.622 30.1694 124.915 29.9676L123.704 29.6649C123.2 29.564 122.897 29.3622 122.695 29.1604C122.578 29.0821 122.48 28.9775 122.41 28.8549C122.34 28.7323 122.3 28.5951 122.292 28.4541C122.292 28.1514 122.494 27.8487 122.796 27.546C123.099 27.3442 123.503 27.2433 124.007 27.2433C124.411 27.2433 124.713 27.2433 125.016 27.4451C125.218 27.4451 125.319 27.6469 125.521 27.8487L125.823 28.4541L126.933 28.0505C126.732 27.546 126.429 27.0415 125.924 26.7387C125.373 26.3244 124.697 26.1108 124.007 26.1333L122.494 26.436C122.09 26.6378 121.686 26.9406 121.485 27.3442C121.283 27.7478 121.081 28.0505 121.081 28.555C121.081 29.0595 121.182 29.564 121.586 29.9676C121.888 30.2703 122.494 30.573 123.2 30.7748L124.613 31.0775C125.016 31.0775 125.319 31.2793 125.521 31.4811C125.722 31.6829 125.823 31.9856 125.823 32.1874C125.823 32.591 125.622 32.8937 125.319 33.1964C124.915 33.3982 124.512 33.4991 123.906 33.4991C123.402 33.4991 122.897 33.3982 122.595 33.1964C122.292 32.9946 122.09 32.591 121.989 32.1874L120.778 32.4901C120.98 33.1964 121.283 33.7009 121.787 34.1045C122.393 34.4072 123.099 34.609 123.906 34.609ZM131.777 34.609C132.089 34.5943 132.396 34.526 132.685 34.4072L132.382 33.2973C132.214 33.3009 132.046 33.3009 131.877 33.2973H131.373L130.969 32.8937L130.768 32.0865V27.3442H132.483V26.3351H130.768V24.3171H129.557V26.3351H128.346V27.3442H129.557V32.3892C129.557 32.7928 129.557 33.1964 129.759 33.3982L129.859 33.6L130.667 34.3063C131.07 34.5081 131.373 34.5081 131.676 34.5081L131.777 34.609ZM137.023 34.609C137.533 34.631 138.037 34.4981 138.469 34.2279C138.901 33.9578 139.242 33.5629 139.445 33.0955H139.546V34.3063H140.858V26.2342H139.546V30.9766C139.546 31.4811 139.546 31.9856 139.243 32.2883L138.436 32.9946C138.133 33.1964 137.73 33.1964 137.427 33.1964C136.922 33.1964 136.519 33.0955 136.216 32.6919C135.873 32.3033 135.692 31.7975 135.712 31.2793V26.2342H134.4V31.2793C134.4 32.0865 134.501 32.591 134.804 33.0955C135.005 33.4991 135.308 33.9027 135.712 34.1045C136.115 34.3063 136.519 34.4072 137.023 34.4072V34.609ZM146.104 34.609C146.71 34.609 147.113 34.5081 147.416 34.3063C147.917 34.0595 148.338 33.6744 148.627 33.1964H148.728V34.3063H149.939V23.5099H148.728V27.546H148.627L148.223 27.0415C147.996 26.7268 147.69 26.4774 147.336 26.318C146.981 26.1587 146.592 26.095 146.205 26.1333C145.556 26.1266 144.921 26.3155 144.381 26.6754C143.841 27.0354 143.422 27.5498 143.178 28.1514C142.876 28.7568 142.775 29.4631 142.775 30.3712C142.775 31.2793 142.876 31.9856 143.178 32.591C143.481 33.2973 143.885 33.7009 144.389 34.1045C144.894 34.4072 145.499 34.609 146.205 34.609H146.104ZM146.407 33.4991C145.936 33.522 145.472 33.3792 145.095 33.0955C144.692 32.7928 144.389 32.3892 144.288 31.8847C143.899 30.8783 143.899 29.7631 144.288 28.7568C144.389 28.3532 144.692 27.9496 144.995 27.7478C145.383 27.4043 145.889 27.2237 146.407 27.2433C146.912 27.2433 147.315 27.4451 147.618 27.6469C148.022 27.9496 148.223 28.2523 148.425 28.6559C148.627 29.1604 148.728 29.6649 148.728 30.3712C148.728 30.9766 148.627 31.4811 148.425 31.9856C148.223 32.4901 148.022 32.7928 147.618 32.9946C147.282 33.2929 146.856 33.4705 146.407 33.4991ZM153.067 24.9225L153.672 24.6198C153.874 24.5189 153.975 24.3171 153.975 24.0144L153.672 23.409C153.501 23.2707 153.286 23.199 153.067 23.2072C152.764 23.2072 152.562 23.2072 152.461 23.409L152.159 24.0144C152.159 24.3171 152.159 24.5189 152.461 24.6198C152.562 24.8216 152.764 24.9225 153.067 24.9225ZM153.672 34.4072V26.3351H152.36V34.4072H153.672ZM158.313 34.609C158.818 34.609 159.322 34.609 159.524 34.4072C160.029 34.2153 160.455 33.8602 160.735 33.3982H160.836V34.4072H162.047V29.0595C162.047 28.4541 162.047 27.8487 161.744 27.546C161.542 27.1424 161.341 26.8396 160.937 26.6378L159.928 26.2342H157.809L156.699 26.9406C156.396 27.2433 155.993 27.546 155.791 28.0505L157.002 28.4541L157.708 27.6469C158.011 27.4451 158.515 27.2433 159.121 27.2433C159.726 27.2433 160.13 27.4451 160.432 27.7478C160.735 27.9496 160.836 28.3532 160.836 28.9586C160.836 29.1604 160.836 29.2613 160.634 29.3622L159.928 29.564C159.153 29.6508 158.379 29.7517 157.607 29.8667C157.254 29.9551 156.915 30.0909 156.598 30.2703C156.307 30.4428 156.064 30.6857 155.892 30.9766C155.685 31.3094 155.58 31.695 155.589 32.0865C155.589 32.6919 155.69 33.0955 155.993 33.4991C156.195 33.8018 156.497 34.1045 157.002 34.3063C157.405 34.5081 157.809 34.609 158.313 34.609ZM158.515 33.4991C158.011 33.4991 157.607 33.3982 157.304 33.1964C157.002 32.8937 156.8 32.591 156.8 32.1874C156.8 31.8847 156.901 31.582 157.103 31.3802L157.809 30.9766L158.717 30.7748C159.421 30.6273 160.127 30.4927 160.836 30.3712V31.3802C160.836 31.7838 160.836 32.1874 160.533 32.3892C160.375 32.7171 160.131 32.996 159.827 33.1964C159.423 33.3982 159.02 33.4991 158.515 33.4991ZM165.578 34.5081V29.2613C165.581 28.9252 165.676 28.5963 165.854 28.3113C166.033 28.0262 166.286 27.7962 166.587 27.6469C166.991 27.4451 167.294 27.3442 167.697 27.3442C167.965 27.3093 168.237 27.3093 168.504 27.3442V26.2342C168.269 26.2163 168.033 26.2163 167.798 26.2342C167.294 26.2342 166.89 26.3351 166.486 26.6378C166.114 26.8766 165.83 27.2311 165.679 27.6469V26.2342H164.368V34.4072L165.578 34.5081Z" fill="white"/>
<path d="M42.9838 22.1982C35.9207 22.1982 28.8576 23.409 28.6558 23.409L27.2432 23.7117V43.3874C27.2432 43.5892 28.2522 57.1099 42.3784 62.3568L42.9838 62.5586L43.5892 62.3568C47.6029 60.9073 51.1392 58.3791 53.8094 55.0503C56.4796 51.7215 58.1802 47.7209 58.7243 43.4883V23.7117L57.3117 23.409C57.009 23.409 50.0468 22.1982 42.9838 22.1982ZM57.3117 31.9856H54.4865V24.418L57.1099 24.8216H57.3117V31.9856ZM54.1838 52.1658V44.1946H57.2108C57.009 45.6072 56.2018 48.836 54.1838 52.2667V52.1658ZM43.3874 40.5622H57.3117V42.8829H43.3874V40.5622ZM49.4414 57.7153L47.2216 59.2288V44.1946H49.3405L49.4414 57.7153ZM33.6 53.0739C33.7652 53.4151 34.0232 53.7028 34.3444 53.9041C34.6657 54.1055 35.0371 54.2123 35.4162 54.2123C35.7953 54.2123 36.1667 54.1055 36.4879 53.9041C36.8092 53.7028 37.0672 53.4151 37.2324 53.0739C37.4069 53.3893 37.6627 53.6522 37.9733 53.8353C38.2838 54.0184 38.6377 54.1149 38.9982 54.1149C39.3587 54.1149 39.7126 54.0184 40.0231 53.8353C40.3336 53.6522 40.5894 53.3893 40.7639 53.0739C41.0666 53.5784 41.4702 53.982 41.9747 54.0829V56.2018C41.7156 56.1235 41.4748 55.9937 41.2668 55.8204C41.0587 55.647 40.8877 55.4336 40.7639 55.1928C40.5894 55.5082 40.3336 55.7711 40.0231 55.9542C39.7126 56.1373 39.3587 56.2338 38.9982 56.2338C38.6377 56.2338 38.2838 56.1373 37.9733 55.9542C37.6627 55.7711 37.4069 55.5082 37.2324 55.1928C37.0231 55.5801 36.6929 55.8883 36.2921 56.0705C35.8914 56.2526 35.442 56.2988 35.0126 56.2018C34.2054 55.4955 33.4991 54.6883 32.8937 53.8811L33.6 53.0739ZM41.9747 50.2486V51.964C41.7156 51.8856 41.4748 51.7559 41.2668 51.5826C41.0587 51.4092 40.8877 51.1958 40.7639 50.955C40.5894 51.2704 40.3336 51.5333 40.0231 51.7164C39.7126 51.8994 39.3587 51.996 38.9982 51.996C38.6377 51.996 38.2838 51.8994 37.9733 51.7164C37.6627 51.5333 37.4069 51.2704 37.2324 50.955C37.0672 51.2961 36.8092 51.5839 36.4879 51.7852C36.1667 51.9866 35.7953 52.0933 35.4162 52.0933C35.0371 52.0933 34.6657 51.9866 34.3444 51.7852C34.0232 51.5839 33.7652 51.2961 33.6 50.955C33.417 51.3237 33.1256 51.6277 32.7649 51.8261C32.4041 52.0245 31.9914 52.1078 31.582 52.0649L30.5729 50.2486H41.9747ZM38.9477 58.4216C39.3238 58.4242 39.6931 58.3217 40.0141 58.1256C40.335 57.9295 40.5947 57.6476 40.7639 57.3117C41.0666 57.8162 41.4702 58.2198 41.9747 58.3207V60.8432C40.131 60.0706 38.4 59.0523 36.8288 57.8162L37.2324 57.3117C37.3937 57.6326 37.6377 57.9047 37.9392 58.0998C38.2408 58.2949 38.5889 58.406 38.9477 58.4216ZM43.3874 37.2324H57.3117V39.2505H43.3874V37.2324ZM43.3874 33.4991H57.3117V35.7189H43.3874V33.4991ZM50.2486 24.0144L53.0739 24.3171V32.0865H50.2486V24.0144ZM45.9099 32.0865V23.7117L48.836 23.9135V31.9856L45.9099 32.0865ZM44.4973 23.7117V32.0865H41.672V23.7117H40.4612C42.1423 23.6495 43.8252 23.6495 45.5063 23.7117H44.4973ZM33.2973 24.2162L36.1225 23.9135V31.9856H33.2973V24.2162ZM40.3603 23.6108V31.9856H37.5351V23.8126L40.3603 23.6108ZM31.8847 24.418V31.9856H28.7567V24.9225L28.9585 24.8216L31.8847 24.418ZM41.9747 33.2973V48.6342H30.0684C28.8576 45.6072 28.6558 43.3874 28.6558 43.3874V33.2973H41.9747ZM43.3874 44.1946H45.809V59.8342H45.9099L43.3874 61.045V44.1946ZM50.7531 44.1946H52.7711V54.2847L50.7531 56.4036V44.1946Z" fill="white"/>
<path d="M32.4901 35.7189L31.4811 36.7279L30.4721 35.7189L31.4811 34.7099L32.4901 35.7189ZM35.0126 35.7189L34.0036 36.7279L33.0955 35.7189L34.1045 34.7099L35.0126 35.7189ZM37.5351 35.7189L36.5261 36.7279L35.618 35.7189L36.627 34.7099L37.5351 35.7189ZM40.0576 35.7189L39.1495 36.7279L38.1405 35.7189L39.1495 34.7099L40.0576 35.7189ZM32.4901 38.3423L31.4811 39.3514L30.4721 38.3423L31.4811 37.4342L32.4901 38.3423ZM35.0126 38.3423L34.0036 39.3514L33.0955 38.3423L34.1045 37.4342L35.0126 38.3423ZM37.5351 38.3423L36.5261 39.3514L35.618 38.3423L36.627 37.4342L37.5351 38.3423ZM40.0576 38.3423L39.1495 39.3514L38.1405 38.3423L39.1495 37.4342L40.0576 38.3423ZM32.4901 41.0667L31.4811 42.0757L30.4721 41.0667L31.4811 40.0577L32.4901 41.0667ZM35.0126 41.0667L34.0036 42.0757L33.0955 41.0667L34.1045 40.0577L35.0126 41.0667ZM37.5351 41.0667L36.5261 42.0757L35.618 41.0667L36.627 40.0577L37.5351 41.0667ZM40.0576 41.0667L39.1495 42.0757L38.1405 41.0667L39.1495 40.0577L40.0576 41.0667ZM32.4901 43.6901L31.4811 44.6991L30.573 43.6901L31.582 42.6811L32.4901 43.6901ZM35.0126 43.6901L34.0036 44.6991L33.0955 43.6901L34.1045 42.6811L35.0126 43.6901ZM37.5351 43.6901L36.5261 44.6991L35.618 43.6901L36.627 42.6811L37.5351 43.6901ZM40.0576 43.6901L39.1495 44.6991L38.1405 43.6901L39.1495 42.6811L40.0576 43.6901ZM32.4901 46.3135L31.4811 47.2216L30.4721 46.2126L31.4811 45.3045L32.4901 46.3135ZM35.0126 46.3135L34.0036 47.2216L33.0955 46.2126L34.1045 45.3045L35.0126 46.3135ZM37.5351 46.3135L36.5261 47.2216L35.618 46.2126L36.627 45.3045L37.5351 46.3135ZM40.0576 46.3135L39.1495 47.2216L38.1405 46.2126L39.1495 45.3045L40.0576 46.3135Z" fill="white"/>
</g>
<defs>
<clipPath id="clip0_2_546">
<rect width="223.3" height="85.4977" fill="white" transform="scale(1.00313)"/>
</clipPath>
</defs>
</svg>
