<svg width="23" height="22" viewBox="0 0 23 22" fill="none" xmlns="http://www.w3.org/2000/svg">
<path d="M3.1367 5.52148H18.5195C18.9206 5.52148 19.3216 5.52507 19.7226 5.53223C20.1237 5.53939 20.5176 5.53581 20.9043 5.52148H20.9472C21.2337 5.52148 21.4951 5.41406 21.7314 5.19922C21.9678 4.98438 22.0788 4.72656 22.0644 4.42578C22.0501 4.125 21.9391 3.86361 21.7314 3.6416C21.5237 3.4196 21.2624 3.30859 20.9472 3.30859H3.60936C3.20832 3.30859 2.80727 3.30501 2.40623 3.29785C2.00519 3.29069 1.60415 3.29427 1.20311 3.30859H1.18162C0.880841 3.30859 0.615867 3.4196 0.386701 3.6416C0.157534 3.86361 0.0501123 4.125 0.0644352 4.42578C0.0787581 4.72656 0.189761 4.98438 0.397443 5.19922C0.605125 5.41406 0.866518 5.52148 1.18162 5.52148H3.1367ZM5.62889 12.2676H14.3515C14.6523 12.2676 14.9173 12.1602 15.1465 11.9453C15.3756 11.7305 15.4831 11.4727 15.4687 11.1719C15.4544 10.8711 15.3434 10.6097 15.1357 10.3877C14.928 10.1657 14.6666 10.0547 14.3515 10.0547H1.18162C0.880841 10.0547 0.615867 10.1657 0.386701 10.3877C0.157534 10.6097 0.0501123 10.8711 0.0644352 11.1719C0.0787581 11.4727 0.189761 11.7305 0.397443 11.9453C0.605125 12.1602 0.866518 12.2676 1.18162 12.2676H5.62889ZM6.96092 18.8418H7.75584C8.05662 18.8418 8.3216 18.7308 8.55076 18.5088C8.77993 18.2868 8.88735 18.0254 8.87303 17.7246C8.85871 17.4382 8.7477 17.1839 8.54002 16.9619C8.33234 16.7399 8.07095 16.6289 7.75584 16.6289H1.18162C0.880841 16.6289 0.615867 16.7399 0.386701 16.9619C0.157534 17.1839 0.0501123 17.4382 0.0644352 17.7246C0.0787581 18.0254 0.189761 18.2868 0.397443 18.5088C0.605125 18.7308 0.866518 18.8418 1.18162 18.8418H6.96092Z" fill="#292929"/>
</svg>
