<svg width="75" height="80" viewBox="0 0 75 80" fill="none" xmlns="http://www.w3.org/2000/svg">
<g clip-path="url(#clip0_2_386)">
<path fill-rule="evenodd" clip-rule="evenodd" d="M74.889 7.82099L67.223 15.473L59.555 7.81899L67.221 0.166992L74.889 7.82099ZM74.887 29.381L67.223 37.034L59.557 29.384L67.221 21.73L74.887 29.381ZM74.897 50.939L67.237 58.591L59.569 50.943L67.229 43.29L74.897 50.939ZM74.887 71.694L67.223 79.348L59.557 71.697L67.221 64.043L74.887 71.694ZM35.289 7.82099L27.623 15.473L19.955 7.81899L27.621 0.166992L35.289 7.82099ZM35.287 29.381L27.623 37.034L19.957 29.384L27.621 21.73L35.287 29.381ZM35.297 50.939L27.637 58.591L19.969 50.943L27.629 43.29L35.297 50.939ZM35.287 71.694L27.623 79.348L19.957 71.697L27.621 64.043L35.287 71.694ZM55.089 7.82099L47.423 15.473L39.755 7.81899L47.421 0.166992L55.089 7.82099ZM55.087 29.381L47.423 37.034L39.757 29.384L47.421 21.73L55.087 29.381ZM55.097 50.939L47.437 58.591L39.769 50.943L47.429 43.29L55.097 50.939ZM55.087 71.694L47.423 79.348L39.757 71.697L47.421 64.043L55.087 71.694ZM15.489 7.82099L7.823 15.473L0.154999 7.81999L7.821 0.166992L15.489 7.82099ZM15.487 29.381L7.823 37.034L0.156999 29.384L7.82 21.73L15.486 29.381H15.487ZM15.497 50.939L7.837 58.591L0.169999 50.943L7.83 43.29L15.498 50.939H15.497ZM15.487 71.694L7.823 79.348L0.156999 71.697L7.821 64.043L15.487 71.694Z" fill="#F8F8F8"/>
</g>
<defs>
<clipPath id="clip0_2_386">
<rect width="75" height="80" fill="white"/>
</clipPath>
</defs>
</svg>
