<svg width="30" height="30" viewBox="0 0 30 30" fill="none" xmlns="http://www.w3.org/2000/svg">
<path d="M15.0334 7.28285C19.2428 7.28285 22.7171 10.7572 22.7171 14.9666C22.7171 19.2428 19.2428 22.6503 15.0334 22.6503C10.7572 22.6503 7.34967 19.2428 7.34967 14.9666C7.34967 10.7572 10.7572 7.28285 15.0334 7.28285ZM15.0334 19.9777C17.7728 19.9777 19.9777 17.7728 19.9777 14.9666C19.9777 12.2272 17.7728 10.0223 15.0334 10.0223C12.2272 10.0223 10.0223 12.2272 10.0223 14.9666C10.0223 17.7728 12.294 19.9777 15.0334 19.9777ZM24.7884 7.01559C24.7884 8.01782 23.9866 8.8196 22.9844 8.8196C21.9822 8.8196 21.1804 8.01782 21.1804 7.01559C21.1804 6.01336 21.9822 5.21158 22.9844 5.21158C23.9866 5.21158 24.7884 6.01336 24.7884 7.01559ZM29.8664 8.8196C30 11.2918 30 18.7082 29.8664 21.1804C29.7327 23.5857 29.1982 25.657 27.461 27.461C25.7238 29.1982 23.5857 29.7327 21.1804 29.8664C18.7082 30 11.2918 30 8.8196 29.8664C6.41425 29.7327 4.34298 29.1982 2.53898 27.461C0.801782 25.657 0.267261 23.5857 0.13363 21.1804C0 18.7082 0 11.2918 0.13363 8.8196C0.267261 6.41425 0.801782 4.27617 2.53898 2.53898C4.34298 0.801782 6.41425 0.267261 8.8196 0.13363C11.2918 0 18.7082 0 21.1804 0.13363C23.5857 0.267261 25.7238 0.801782 27.461 2.53898C29.1982 4.27617 29.7327 6.41425 29.8664 8.8196ZM26.6592 23.7862C27.461 21.8486 27.2606 17.1715 27.2606 14.9666C27.2606 12.8285 27.461 8.15145 26.6592 6.14699C26.1247 4.87751 25.1225 3.80846 23.853 3.34076C21.8486 2.53898 17.1715 2.73942 15.0334 2.73942C12.8285 2.73942 8.15145 2.53898 6.21381 3.34076C4.87751 3.87528 3.87528 4.87751 3.34076 6.14699C2.53898 8.15145 2.73942 12.8285 2.73942 14.9666C2.73942 17.1715 2.53898 21.8486 3.34076 23.7862C3.87528 25.1225 4.87751 26.1247 6.21381 26.6592C8.15145 27.461 12.8285 27.2606 15.0334 27.2606C17.1715 27.2606 21.8486 27.461 23.853 26.6592C25.1225 26.1247 26.1915 25.1225 26.6592 23.7862Z" fill="white"/>
<a href="https://www.instagram.com/">
<rect fill="black" fill-opacity="0" x="0.125" y="-2.55" width="29.75" height="39.1"/>
</a>
</svg>
