<svg width="34" height="28" viewBox="0 0 34 28" fill="none" xmlns="http://www.w3.org/2000/svg">
<path d="M30.5401 6.85323C30.5401 7.18591 30.5401 7.45205 30.5401 7.78474C30.5401 17.0333 23.5538 27.6125 10.7123 27.6125C6.72016 27.6125 3.06067 26.4814 0 24.4853C0.53229 24.5519 1.06458 24.6184 1.66341 24.6184C4.92368 24.6184 7.91781 23.4873 10.3131 21.6243C7.25245 21.5577 4.65753 19.5616 3.79256 16.7671C4.25832 16.8337 4.65753 16.9002 5.12329 16.9002C5.72211 16.9002 6.38748 16.7671 6.91977 16.6341C3.72603 15.9687 1.33072 13.1742 1.33072 9.78082V9.71429C2.26223 10.2466 3.39335 10.5127 4.52446 10.5793C2.59491 9.31507 1.39726 7.18591 1.39726 4.79061C1.39726 3.45988 1.72994 2.26223 2.32877 1.26419C5.78865 5.45597 10.9785 8.25049 16.7671 8.58317C16.6341 8.05088 16.5675 7.51859 16.5675 6.9863C16.5675 3.1272 19.6947 0 23.5538 0C25.5499 0 27.3464 0.798434 28.6771 2.19569C30.2074 1.86301 31.7378 1.26419 33.0685 0.465753C32.5362 2.12916 31.4716 3.45988 30.0078 4.32485C31.4051 4.19178 32.8023 3.79256 34 3.26027C33.0685 4.65753 31.8708 5.85519 30.5401 6.85323Z" fill="white"/>
<a href="https://twitter.com/">
<rect fill="black" fill-opacity="0" y="-2.55" width="34" height="39.1"/>
</a>
</svg>
